<?xml version="1.0" encoding="UTF-8" standalone="no"?>
<svg
   xmlns:dc="http://purl.org/dc/elements/1.1/"
   xmlns:cc="http://creativecommons.org/ns#"
   xmlns:rdf="http://www.w3.org/1999/02/22-rdf-syntax-ns#"
   xmlns:svg="http://www.w3.org/2000/svg"
   xmlns="http://www.w3.org/2000/svg"
   viewBox="0 0 113.9752 107.38027"
   height="107.38027"
   width="113.9752"
   xml:space="preserve"
   id="svg2"
   version="1.1"><metadata
     id="metadata8"><rdf:RDF><cc:Work
         rdf:about=""><dc:format>image/svg+xml</dc:format><dc:type
           rdf:resource="http://purl.org/dc/dcmitype/StillImage" /></cc:Work></rdf:RDF></metadata><defs
     id="defs6"><clipPath
       id="clipPath18"
       clipPathUnits="userSpaceOnUse"><path
         id="path16"
         d="M 0,80.535 H 85.481 V 0 H 0 Z" /></clipPath></defs><g
     transform="matrix(1.3333333,0,0,-1.3333333,0,107.38027)"
     id="g10"><g
       id="g12"><g
         clip-path="url(#clipPath18)"
         id="g14"><g
           transform="translate(36.3574,5.4805)"
           id="g20"><path
             id="path22"
             style="fill:#a9c80c;fill-opacity:1;fill-rule:nonzero;stroke:none"
             d="m 0,0 c -1.568,0 -2.839,1.271 -2.839,2.84 0,1.568 1.271,2.84 2.839,2.84 1.567,0 2.839,-1.272 2.839,-2.84 C 2.839,1.271 1.567,0 0,0 m 49.019,16.275 c -0.422,1.504 -1.983,2.381 -3.488,1.959 L 6.95,7.404 C 5.677,9.344 3.613,10.707 1.218,11.061 L -15.75,72.973 c -0.384,1.401 -1.757,2.252 -3.159,2.035 -0.155,0.026 -0.313,0.047 -0.476,0.047 h -14.144 c -1.562,0 -2.828,-1.266 -2.828,-2.828 0,-1.562 1.266,-2.829 2.828,-2.829 h 12.893 L -4.338,9.93 C -6.723,8.467 -8.32,5.842 -8.32,2.84 c 0,-4.596 3.725,-8.32 8.32,-8.32 4.275,0 7.794,3.226 8.263,7.376 l 38.798,10.893 c 1.502,0.42 2.379,1.982 1.958,3.486" /></g><g
           transform="translate(41.5615,21.8828)"
           id="g24"><path
             id="path26"
             style="fill:#a9c80c;fill-opacity:1;fill-rule:nonzero;stroke:none"
             d="m 0,0 c 0.602,-2.104 2.572,-3.393 4.407,-2.875 l 0.782,0.221 31.992,8.959 -9.06,32.344 -0.016,0.008 c -0.597,2.115 -2.572,3.408 -4.412,2.888 l -0.59,-0.165 -0.003,10e-4 -9.66,-2.706 2.397,-8.506 -6.2,1.725 -4.402,-4.711 -2.401,8.522 -11.92,-3.339 9.063,-32.352 z" /></g></g></g></g></svg>