<?xml version="1.0" encoding="UTF-8" standalone="no"?>
<svg
   xmlns:dc="http://purl.org/dc/elements/1.1/"
   xmlns:cc="http://creativecommons.org/ns#"
   xmlns:rdf="http://www.w3.org/1999/02/22-rdf-syntax-ns#"
   xmlns:svg="http://www.w3.org/2000/svg"
   xmlns="http://www.w3.org/2000/svg"
   viewBox="0 0 147.36133 327.52133"
   height="327.52133"
   width="147.36133"
   xml:space="preserve"
   id="svg2"
   version="1.1"><metadata
     id="metadata8"><rdf:RDF><cc:Work
         rdf:about=""><dc:format>image/svg+xml</dc:format><dc:type
           rdf:resource="http://purl.org/dc/dcmitype/StillImage" /></cc:Work></rdf:RDF></metadata><defs
     id="defs6" /><g
     transform="matrix(1.3333333,0,0,-1.3333333,0,327.52133)"
     id="g10"><g
       transform="translate(55.2978,208.395)"
       id="g12"><path
         id="path14"
         style="fill:#6d4328;fill-opacity:1;fill-rule:nonzero;stroke:none"
         d="M 0,0 H -2.738 L -8.487,-208.381 H 0 L 8.463,-208.395 2.64,0 Z" /></g><g
       transform="translate(55.2978,208.395)"
       id="g16"><path
         id="path18"
         style="fill:#643b23;fill-opacity:1;fill-rule:nonzero;stroke:none"
         d="M 0,0 V -208.381 L 8.463,-208.395 2.64,0 Z" /></g><g
       transform="translate(0,145.5345)"
       id="g20"><path
         id="path22"
         style="fill:#51976f;fill-opacity:1;fill-rule:nonzero;stroke:none"
         d="m 0,0 h 55.253 55.268 L 54.887,58.265 Z" /></g><g
       transform="translate(55.2528,145.5345)"
       id="g24"><path
         id="path26"
         style="fill:#68b330;fill-opacity:1;fill-rule:nonzero;stroke:none"
         d="M 0,0 H -55.253 L 0.371,-58.263 55.268,0 Z" /></g><g
       transform="translate(55.2528,145.5345)"
       id="g28"><path
         id="path30"
         style="fill:#4a8864;fill-opacity:1;fill-rule:nonzero;stroke:none"
         d="M 0,0 H 55.268 L -0.365,58.265 Z" /></g><g
       transform="translate(55.2528,145.5345)"
       id="g32"><path
         id="path34"
         style="fill:#5ca02b;fill-opacity:1;fill-rule:nonzero;stroke:none"
         d="M 0,0 0.371,-58.263 55.268,0 Z" /></g><g
       transform="translate(55.5127,145.564)"
       id="g36"><path
         id="path38"
         style="fill:#1a7f44;fill-opacity:1;fill-rule:nonzero;stroke:none"
         d="M 0,0 38.087,40.445 H -0.26 -38.607 Z" /></g><g
       transform="translate(55.5127,145.564)"
       id="g40"><path
         id="path42"
         style="fill:#17723e;fill-opacity:1;fill-rule:nonzero;stroke:none"
         d="M 0,0 38.087,40.445 H -0.26 Z" /></g><g
       transform="translate(54.9922,226.4385)"
       id="g44"><path
         id="path46"
         style="fill:#96bd19;fill-opacity:1;fill-rule:nonzero;stroke:none"
         d="M 0,0 -38.087,-40.43 H 0.261 38.607 Z" /></g><g
       transform="translate(54.9922,226.4385)"
       id="g48"><path
         id="path50"
         style="fill:#89ab19;fill-opacity:1;fill-rule:nonzero;stroke:none"
         d="M 0,0 0.261,-40.43 H 38.607 Z" /></g><g
       transform="translate(55.4531,186.0088)"
       id="g52"><path
         id="path54"
         style="fill:#78b563;fill-opacity:1;fill-rule:nonzero;stroke:none"
         d="M 0,0 28.076,29.809 H -0.2 -28.47 Z" /></g><g
       transform="translate(55.4531,186.0088)"
       id="g56"><path
         id="path58"
         style="fill:#70a159;fill-opacity:1;fill-rule:nonzero;stroke:none"
         d="M 0,0 28.076,29.809 H -0.2 Z" /></g><g
       transform="translate(55.0656,245.6415)"
       id="g60"><path
         id="path62"
         style="fill:#acc807;fill-opacity:1;fill-rule:nonzero;stroke:none"
         d="M 0,0 -28.082,-29.824 H 0.187 28.463 Z" /></g><g
       transform="translate(55.0656,245.6415)"
       id="g64"><path
         id="path66"
         style="fill:#9bb812;fill-opacity:1;fill-rule:nonzero;stroke:none"
         d="M 0,0 0.187,-29.824 H 28.463 Z" /></g></g></svg>