<svg style="transform:scale(1, -1)" xmlns:dc="http://purl.org/dc/elements/1.1/" xmlns:cc="http://creativecommons.org/ns#" xmlns:rdf="http://www.w3.org/1999/02/22-rdf-syntax-ns#"
  xmlns:svg="http://www.w3.org/2000/svg" xmlns="http://www.w3.org/2000/svg" viewBox="0 0 60.472 60.472" height="60.472"
  width="60.472" xml:space="preserve" id="svg2" version="1.1">

        <g transform="translate(22.666)" id="g20">
          <path id="path22" style="fill:#a9c80c;fill-opacity:1;fill-rule:nonzero;stroke:none" d="m 0,0 h 0.022 c 12.519,0 22.666,10.149 22.666,22.667 v 0.012 c 0,12.523 -10.154,22.675 -22.676,22.675 -12.525,0 -22.678,-10.152 -22.678,-22.675 V 22.667 C -22.666,10.149 -12.519,0 0,0" />
        </g>
        <g transform="translate(24.8105,8.2861)" id="g24">
          <path id="path26" style="fill:#ffffff;fill-opacity:1;fill-rule:nonzero;stroke:none" d="m 0,0 v 12.57 h 4.22 l 0.632,4.897 H 0 v 3.127 c 0,1.42 0.395,2.385 2.428,2.385 l 2.593,0.001 v 4.382 c -0.448,0.06 -1.988,0.193 -3.78,0.193 -3.739,0 -6.299,-2.284 -6.299,-6.475 v -3.613 h -4.23 V 12.57 h 4.23 V 0 Z" />
        </g>
</svg>