
<svg xmlns:dc="http://purl.org/dc/elements/1.1/" xmlns:cc="http://creativecommons.org/ns#" xmlns:rdf="http://www.w3.org/1999/02/22-rdf-syntax-ns#"
  xmlns:svg="http://www.w3.org/2000/svg" xmlns="http://www.w3.org/2000/svg" viewBox="0 0 60.472 29.473331" height="60.473331"
  width="60.472" xml:space="preserve" id="svg2" version="1.1">
 
        <g transform="translate(22.666)" id="g20">
          <path id="path22" style="fill:#a9c80c;fill-opacity:1;fill-rule:nonzero;stroke:none" d="M 0,0 H 0.022 C 12.54,0 22.688,10.148 22.688,22.667 v 0.011 c 0,12.524 -10.152,22.677 -22.676,22.677 -12.525,0 -22.678,-10.153 -22.678,-22.677 V 22.667 C -22.666,10.148 -12.518,0 0,0" />
        </g>

        <g transform="translate(22.6777,34.3066)" id="g24">
          <path id="path26" style="fill:#ffffff;fill-opacity:1;fill-rule:nonzero;stroke:none" d="m 0,0 c -3.158,0 -3.555,-0.014 -4.795,-0.07 -1.237,-0.057 -2.083,-0.253 -2.822,-0.54 -0.765,-0.298 -1.414,-0.696 -2.061,-1.342 -0.646,-0.647 -1.044,-1.295 -1.341,-2.059 -0.287,-0.74 -0.484,-1.586 -0.541,-2.823 -0.055,-1.241 -0.069,-1.637 -0.069,-4.796 0,-3.157 0.014,-3.554 0.069,-4.794 0.057,-1.237 0.254,-2.083 0.541,-2.822 0.297,-0.765 0.695,-1.414 1.341,-2.06 0.647,-0.647 1.296,-1.045 2.061,-1.341 0.739,-0.288 1.585,-0.484 2.822,-0.54 1.24,-0.057 1.637,-0.071 4.795,-0.071 3.157,0 3.554,0.014 4.794,0.071 1.238,0.056 2.083,0.252 2.823,0.54 0.765,0.296 1.413,0.694 2.06,1.341 0.646,0.646 1.044,1.295 1.341,2.06 0.288,0.739 0.484,1.585 0.541,2.822 0.056,1.24 0.069,1.637 0.069,4.794 0,3.159 -0.013,3.555 -0.069,4.796 -0.057,1.237 -0.253,2.083 -0.541,2.823 -0.297,0.764 -0.695,1.412 -1.341,2.059 C 9.03,-1.306 8.382,-0.908 7.617,-0.61 6.877,-0.323 6.032,-0.127 4.794,-0.07 3.554,-0.014 3.157,0 0,0 m 0,-2.096 c 3.104,0 3.473,-0.011 4.698,-0.068 1.134,-0.052 1.75,-0.24 2.16,-0.4 0.542,-0.211 0.93,-0.463 1.337,-0.87 0.408,-0.406 0.659,-0.794 0.869,-1.337 0.16,-0.41 0.35,-1.025 0.401,-2.159 0.056,-1.226 0.068,-1.594 0.068,-4.7 0,-3.104 -0.012,-3.472 -0.068,-4.698 -0.051,-1.134 -0.241,-1.75 -0.401,-2.159 -0.21,-0.542 -0.461,-0.93 -0.869,-1.337 -0.407,-0.406 -0.795,-0.659 -1.337,-0.87 -0.41,-0.16 -1.026,-0.349 -2.16,-0.401 -1.225,-0.056 -1.594,-0.068 -4.698,-0.068 -3.105,0 -3.474,0.012 -4.699,0.068 -1.134,0.052 -1.75,0.241 -2.159,0.401 -0.543,0.211 -0.931,0.464 -1.337,0.87 -0.408,0.407 -0.659,0.795 -0.87,1.337 -0.16,0.409 -0.349,1.025 -0.401,2.159 -0.055,1.226 -0.068,1.594 -0.068,4.698 0,3.106 0.013,3.474 0.068,4.7 0.052,1.134 0.241,1.749 0.401,2.159 0.211,0.543 0.462,0.931 0.87,1.337 0.406,0.407 0.794,0.659 1.337,0.87 0.409,0.16 1.025,0.348 2.159,0.4 1.225,0.057 1.594,0.068 4.699,0.068" />
        </g>
        
        <g transform="translate(22.6777,18.8018)" id="g28">
          <path id="path30" style="fill:#ffffff;fill-opacity:1;fill-rule:nonzero;stroke:none" d="m 0,0 c -2.142,0 -3.877,1.735 -3.877,3.875 0,2.142 1.735,3.878 3.877,3.878 2.141,0 3.876,-1.736 3.876,-3.878 C 3.876,1.735 2.141,0 0,0 m 0,9.847 c -3.299,0 -5.972,-2.673 -5.972,-5.972 0,-3.297 2.673,-5.971 5.972,-5.971 3.298,0 5.971,2.674 5.971,5.971 0,3.299 -2.673,5.972 -5.971,5.972" />
        </g>
        <g transform="translate(30.2803,28.8848)" id="g32">
          <path id="path34" style="fill:#ffffff;fill-opacity:1;fill-rule:nonzero;stroke:none" d="m 0,0 c 0,-0.771 -0.625,-1.395 -1.396,-1.395 -0.77,0 -1.395,0.624 -1.395,1.395 0,0.771 0.625,1.396 1.395,1.396 C -0.625,1.396 0,0.771 0,0" />
        </g>

</svg>