<?xml version="1.0" encoding="UTF-8" standalone="no"?>
<svg
   xmlns:dc="http://purl.org/dc/elements/1.1/"
   xmlns:cc="http://creativecommons.org/ns#"
   xmlns:rdf="http://www.w3.org/1999/02/22-rdf-syntax-ns#"
   xmlns:svg="http://www.w3.org/2000/svg"
   xmlns="http://www.w3.org/2000/svg"
   viewBox="0 0 783.57599 721.60132"
   height="721.60132"
   width="783.57599"
   xml:space="preserve"
   id="svg2"
   version="1.1"><metadata
     id="metadata8"><rdf:RDF><cc:Work
         rdf:about=""><dc:format>image/svg+xml</dc:format><dc:type
           rdf:resource="http://purl.org/dc/dcmitype/StillImage" /></cc:Work></rdf:RDF></metadata><defs
     id="defs6"><clipPath
       id="clipPath18"
       clipPathUnits="userSpaceOnUse"><path
         id="path16"
         d="m 302.445,541.201 c -58.318,0 -111.56,-31.195 -140.908,-81.51 v 0 h -33.23 c -9.85,0 -18.403,-6.968 -20.327,-16.605 v 0 C 105.027,425.102 90.678,411.162 73.03,408.789 v 0 l -0.304,-0.041 -0.304,-0.059 c -8.717,-1.701 -15.039,-9.373 -15.039,-18.226 v 0 -199.746 c 0,-8.229 6.685,-14.915 14.898,-14.915 v 0 h 460.316 c 8.237,0 14.929,6.686 14.929,14.915 v 0 199.746 c 0,8.853 -6.329,16.513 -15.034,18.226 v 0 l -0.302,0.059 -0.305,0.041 c -17.666,2.373 -32.031,16.324 -34.899,33.922 v 0 c -2.035,10.012 -10.57,16.98 -20.385,16.98 v 0 H 443.36 c -29.342,50.315 -82.606,81.51 -140.915,81.51 z" /></clipPath><clipPath
       id="clipPath78"
       clipPathUnits="userSpaceOnUse"><path
         id="path76"
         d="M 0,541.201 H 587.682 V 0 H 0 Z" /></clipPath><clipPath
       id="clipPath158"
       clipPathUnits="userSpaceOnUse"><path
         id="path156"
         d="m 302.445,541.201 c -58.318,0 -111.56,-31.195 -140.908,-81.51 v 0 h -33.23 c -9.85,0 -18.403,-6.968 -20.327,-16.605 v 0 C 105.027,425.102 90.678,411.162 73.03,408.789 v 0 l -0.304,-0.041 -0.304,-0.059 c -8.717,-1.701 -15.039,-9.373 -15.039,-18.226 v 0 -199.746 c 0,-8.229 6.685,-14.915 14.898,-14.915 v 0 h 460.316 c 8.237,0 14.929,6.686 14.929,14.915 v 0 199.746 c 0,8.853 -6.329,16.513 -15.034,18.226 v 0 l -0.302,0.059 -0.305,0.041 c -17.666,2.373 -32.031,16.324 -34.899,33.922 v 0 c -2.035,10.012 -10.57,16.98 -20.385,16.98 v 0 H 443.36 c -29.342,50.315 -82.606,81.51 -140.915,81.51 z" /></clipPath></defs><g
     transform="matrix(1.3333333,0,0,-1.3333333,0,721.60133)"
     id="g10"><g
       id="g12"><g
         clip-path="url(#clipPath18)"
         id="g14"><g
           transform="translate(532.4922,408.6895)"
           id="g20"><path
             id="path22"
             style="fill:#000f9f;fill-opacity:1;fill-rule:evenodd;stroke:none"
             d="M 0,0 -0.303,0.059 -0.607,0.1 c -17.666,2.373 -32.032,16.324 -34.899,33.921 -2.035,10 -10.57,16.981 -20.385,16.981 h -33.242 c -29.342,50.314 -82.605,81.51 -140.914,81.51 -58.318,0 -111.56,-31.196 -140.908,-81.51 h -33.231 c -9.849,0 -18.402,-6.981 -20.326,-16.606 C -427.465,16.412 -441.814,2.473 -459.463,0.1 L -459.766,0.059 -460.07,0 c -8.717,-1.701 -15.039,-9.373 -15.039,-18.227 v -375.56 c 0,-8.215 6.685,-14.902 14.898,-14.902 H 0.105 c 8.237,0 14.928,6.687 14.928,14.902 v 375.56 C 15.033,-9.373 8.705,-1.713 0,0" /></g><g
           transform="translate(427.998,282.5488)"
           id="g24"><path
             id="path26"
             style="fill:#ffffff;fill-opacity:1;fill-rule:nonzero;stroke:none"
             d="m 0,0 c 0,69.344 -56.213,125.553 -125.553,125.553 -69.34,0 -125.552,-56.209 -125.552,-125.553 0,-69.33 56.212,-125.541 125.552,-125.541 C -56.213,-125.541 0,-69.33 0,0" /></g><g
           transform="translate(472.1738,223.1406)"
           id="g28"><path
             id="path30"
             style="fill:#b7cae0;fill-opacity:1;fill-rule:nonzero;stroke:none"
             d="m 0,0 c 0,0 -58.361,46.896 -115.199,40.344 -37.016,-6.496 -70.334,-49.049 -105.875,-56.334 -35.565,-7.285 -71.328,26.676 -113.17,7.672 -41.842,-19.03 -102.641,-63.668 -102.641,-63.668 0,0 16.016,-122.545 17.737,-121.875 1.73,0.67 393.433,8.064 393.433,8.064 z" /></g><g
           transform="translate(562.8105,254.4668)"
           id="g32"><path
             id="path34"
             style="fill:#c3d5ea;fill-opacity:1;fill-rule:nonzero;stroke:none"
             d="m 0,0 c 0,0 -48.615,27.363 -88.754,18.338 -40.139,-9.037 -73.797,-53.809 -112.297,-63.545 -38.502,-9.736 -80.068,21.689 -124.687,-0.193 C -370.352,-67.275 -434,-116.018 -434,-116.018 c 0,0 25.936,-121.175 27.785,-120.373 1.871,0.797 431.086,35.307 431.086,35.307 z" /></g><g
           transform="translate(158.5254,333.2988)"
           id="g36"><path
             id="path38"
             style="fill:#ffffff;fill-opacity:1;fill-rule:nonzero;stroke:none"
             d="m 0,0 -37.91,21.135 c -0.707,0.394 -1.153,0.752 -1.293,1.023 -0.281,0.58 -0.147,1.309 0.363,2.199 l 2.539,4.59 c 0.508,0.912 0.994,1.389 1.461,1.428 0.469,0.053 1.076,-0.133 1.779,-0.535 L -1.766,12.393 c 0.198,-0.112 0.444,-0.143 0.725,-0.102 0.281,0.041 0.504,0.201 0.654,0.477 l 3.399,6.068 c 0.345,0.629 0.205,1.123 -0.449,1.48 L -28.639,37.73 c -0.73,0.397 -1.158,0.741 -1.298,1.036 -0.282,0.566 -0.165,1.295 0.345,2.187 l 2.557,4.61 c 0.502,0.892 0.982,1.369 1.461,1.41 0.469,0.048 1.064,-0.133 1.803,-0.539 L 7.5,28.988 c 0.191,-0.111 0.432,-0.152 0.736,-0.103 0.287,0.052 0.508,0.205 0.655,0.488 l 3.38,6.059 c 0.352,0.629 0.2,1.125 -0.443,1.488 l -31.213,17.408 c -0.742,0.395 -1.17,0.748 -1.31,1.041 -0.264,0.559 -0.164,1.299 0.34,2.19 l 2.574,4.589 c 0.49,0.901 0.994,1.37 1.461,1.418 0.468,0.041 1.052,-0.123 1.72,-0.505 L 23.357,41.887 c 0.93,-0.518 1.422,-1.004 1.457,-1.473 0.057,-0.465 -0.099,-1.041 -0.503,-1.752 L 3.252,0.893 C 2.85,0.174 2.504,-0.254 2.223,-0.414 1.656,-0.648 0.912,-0.525 0,0" /></g><g
           transform="translate(193.3535,382.3555)"
           id="g40"><path
             id="path42"
             style="fill:#ffffff;fill-opacity:1;fill-rule:nonzero;stroke:none"
             d="m 0,0 -3.691,-3.576 c -0.567,-0.569 -1.012,-0.869 -1.34,-0.922 -0.608,-0.09 -1.276,0.244 -2,1.016 l -30.278,31.084 c -0.566,0.595 -0.888,1.041 -0.947,1.377 -0.105,0.609 0.223,1.275 0.947,1.994 l 3.791,3.66 c 0.725,0.728 1.334,1.041 1.801,0.949 0.446,-0.078 0.973,-0.436 1.545,-1.031 l 15.711,-16.139 -9.23,22.442 c -0.426,1.011 -0.608,1.74 -0.584,2.187 0.058,0.445 0.304,0.912 0.783,1.377 l 3.914,3.811 c 0.754,0.716 1.34,1.033 1.807,0.943 0.462,-0.104 0.988,-0.436 1.556,-1.035 L 14.063,17.043 c 0.56,-0.588 0.888,-1.045 0.947,-1.369 0.105,-0.617 -0.223,-1.287 -0.947,-1.994 l -3.78,-3.659 C 9.541,9.293 8.932,8.969 8.469,9.049 8.002,9.16 7.498,9.506 6.908,10.094 L -9.57,27.021 0.543,3.881 C 0.994,2.92 1.152,2.15 1.006,1.611 0.865,1.064 0.543,0.527 0,0" /></g><g
           transform="translate(211.1934,403.7734)"
           id="g44"><path
             id="path46"
             style="fill:#ffffff;fill-opacity:1;fill-rule:nonzero;stroke:none"
             d="m 0,0 -20.086,38.461 c -0.363,0.73 -0.545,1.246 -0.527,1.59 0.105,0.617 0.592,1.156 1.504,1.633 l 4.65,2.441 c 0.924,0.479 1.592,0.598 2.023,0.385 0.411,-0.233 0.813,-0.699 1.2,-1.428 L 5.348,11.328 C 5.453,11.139 5.65,10.975 5.896,10.854 6.16,10.73 6.447,10.752 6.705,10.893 l 6.164,3.203 c 0.633,0.343 0.795,0.842 0.445,1.467 L -3.234,47.256 c -0.381,0.74 -0.543,1.258 -0.526,1.59 0.082,0.629 0.59,1.164 1.502,1.633 l 4.656,2.441 c 0.913,0.475 1.581,0.605 2.008,0.394 0.403,-0.224 0.813,-0.709 1.209,-1.437 L 22.176,20.123 c 0.123,-0.203 0.304,-0.353 0.568,-0.477 0.262,-0.121 0.549,-0.121 0.807,0.041 l 6.166,3.202 c 0.625,0.334 0.771,0.832 0.443,1.48 l -16.529,31.69 c -0.399,0.73 -0.586,1.257 -0.539,1.582 0.082,0.617 0.596,1.156 1.51,1.64 l 4.644,2.422 c 0.924,0.477 1.59,0.617 2,0.406 0.422,-0.232 0.807,-0.681 1.17,-1.379 L 42.52,22.219 c 0.486,-0.942 0.65,-1.612 0.427,-2.035 -0.199,-0.436 -0.666,-0.83 -1.398,-1.205 L 3.213,-1.041 C 2.504,-1.418 1.979,-1.588 1.674,-1.549 1.041,-1.447 0.492,-0.93 0,0" /></g><g
           transform="translate(259.4512,426.5723)"
           id="g48"><path
             id="path50"
             style="fill:#ffffff;fill-opacity:1;fill-rule:nonzero;stroke:none"
             d="m 0,0 -8.084,42.621 c -0.162,0.832 -0.162,1.391 -0.045,1.682 0.244,0.568 0.895,0.955 1.906,1.135 l 5.17,0.996 c 1.006,0.179 1.68,0.111 2.026,-0.215 0.32,-0.344 0.566,-0.912 0.724,-1.711 l 2.78,-14.559 c 0.121,-0.64 0.484,-0.892 1.093,-0.781 l 3.159,0.598 c 1.029,0.213 1.777,0.67 2.234,1.396 0.584,0.955 0.707,2.352 0.363,4.207 l -0.943,4.975 c -0.485,2.574 -0.221,4.658 0.838,6.269 1.041,1.621 2.595,2.625 4.674,3.032 l 4.427,0.83 c 0.567,0.111 1.094,0.041 1.543,-0.223 0.469,-0.273 0.756,-0.711 0.879,-1.357 l 0.818,-4.254 c 0.141,-0.67 0.059,-1.147 -0.251,-1.452 -0.288,-0.271 -0.59,-0.464 -0.895,-0.527 l -1.322,-0.25 c -0.573,-0.103 -0.912,-0.437 -1.018,-0.996 -0.099,-0.555 -0.082,-1.143 0.047,-1.762 l 1.053,-5.56 c 0.281,-1.5 0.176,-2.727 -0.27,-3.688 -0.707,-0.892 -1.375,-1.756 -2.047,-2.566 l 0.047,-0.272 c 1.824,-0.488 3.369,-1.287 4.639,-2.351 1.258,-1.065 2.105,-2.846 2.574,-5.328 L 28.838,5.48 C 29.002,4.68 29.025,4.111 28.902,3.799 28.641,3.232 27.984,2.865 26.99,2.674 L 21.82,1.701 C 20.807,1.51 20.123,1.57 19.795,1.904 19.451,2.248 19.211,2.816 19.07,3.627 l -2.14,11.195 c -0.41,2.188 -1.159,3.768 -2.2,4.762 -1.052,0.992 -2.492,1.316 -4.306,0.982 L 7.195,19.949 C 6.664,19.838 6.459,19.432 6.605,18.703 L 9.793,1.863 C 9.98,0.84 9.916,0.131 9.594,-0.205 9.266,-0.547 8.711,-0.789 7.922,-0.941 L 2.762,-1.916 C 1.943,-2.068 1.416,-2.076 1.111,-1.957 0.562,-1.674 0.176,-1.023 0,0" /></g><g
           transform="translate(302.0703,429.7637)"
           id="g52"><path
             id="path54"
             style="fill:#ffffff;fill-opacity:1;fill-rule:nonzero;stroke:none"
             d="m 0,0 -5.135,0.221 c -0.789,0.041 -1.328,0.164 -1.592,0.367 -0.466,0.373 -0.689,1.101 -0.642,2.158 l 1.971,43.342 c 0.041,0.83 0.164,1.377 0.345,1.631 0.387,0.498 1.094,0.72 2.129,0.67 L 2.322,48.143 C 3.359,48.094 4.002,47.881 4.248,47.484 4.494,47.07 4.592,46.473 4.553,45.623 L 3.539,23.131 13.59,45.227 c 0.461,0.992 0.848,1.621 1.199,1.904 0.338,0.295 0.865,0.416 1.531,0.387 l 5.453,-0.254 c 1.036,-0.051 1.661,-0.264 1.93,-0.67 0.24,-0.405 0.363,-1.022 0.322,-1.834 L 22.059,1.406 C 22.018,0.588 21.9,0.029 21.691,-0.234 21.328,-0.721 20.621,-0.943 19.572,-0.881 l -5.234,0.223 c -1.041,0.049 -1.668,0.271 -1.936,0.666 -0.24,0.416 -0.339,1.035 -0.304,1.855 L 13.15,25.459 3.195,2.27 C 2.785,1.275 2.34,0.629 1.873,0.365 1.393,0.09 0.762,-0.029 0,0" /></g><g
           transform="translate(345.0176,473.6016)"
           id="g56"><path
             id="path58"
             style="fill:#ffffff;fill-opacity:1;fill-rule:nonzero;stroke:none"
             d="M 0,0 5.066,-1.459 C 6.061,-1.73 6.633,-2.098 6.773,-2.541 6.932,-2.988 6.891,-3.615 6.668,-4.416 L 3.02,-17.203 c -0.118,-0.387 -0.159,-0.707 -0.094,-0.971 0.035,-0.234 0.279,-0.435 0.701,-0.558 l 7.055,-2.036 c 0.222,-0.062 0.363,-0.07 0.466,-0.062 0.469,0.123 0.774,0.518 0.973,1.164 l 3.615,12.656 c 0.233,0.789 0.479,1.295 0.725,1.52 0.478,0.375 1.228,0.435 2.223,0.14 l 5.048,-1.437 c 0.989,-0.293 1.538,-0.658 1.702,-1.115 0.164,-0.436 0.123,-1.065 -0.106,-1.864 L 13.379,-51.469 c -0.24,-0.799 -0.486,-1.297 -0.733,-1.517 -0.484,-0.375 -1.216,-0.438 -2.21,-0.153 l -5.043,1.448 c -0.995,0.283 -1.561,0.658 -1.719,1.115 -0.141,0.435 -0.106,1.064 0.117,1.853 l 4.961,17.356 c 0.221,0.689 -0.047,1.146 -0.738,1.357 l -7.055,2.018 c -0.654,0.181 -1.059,-0.051 -1.264,-0.711 l -4.994,-17.414 c -0.293,-1.014 -0.656,-1.602 -1.076,-1.764 -0.469,-0.164 -1.059,-0.131 -1.826,0.092 l -5.065,1.447 c -0.797,0.225 -1.263,0.467 -1.486,0.719 -0.363,0.488 -0.398,1.238 -0.117,2.25 L -2.895,-1.66 c 0.206,0.789 0.45,1.306 0.707,1.519 C -1.719,0.242 -0.988,0.283 0,0" /></g><g
           transform="translate(417.2812,441.1602)"
           id="g60"><path
             id="path62"
             style="fill:#ffffff;fill-opacity:1;fill-rule:nonzero;stroke:none"
             d="m 0,0 18.217,-14.336 c 0.806,-0.646 1.193,-1.205 1.176,-1.67 -0.041,-0.476 -0.305,-1.035 -0.838,-1.693 L -8.27,-51.773 c -0.503,-0.659 -0.931,-1.041 -1.234,-1.143 -0.592,-0.174 -1.299,0.061 -2.117,0.699 l -4.125,3.26 c -0.807,0.629 -1.193,1.209 -1.176,1.674 0.041,0.455 0.305,1.023 0.813,1.681 l 22.246,28.239 c 0.427,0.547 0.304,1.06 -0.323,1.57 l -4.591,3.605 c -0.141,0.122 -0.321,0.204 -0.543,0.264 -0.205,0.051 -0.44,-0.07 -0.662,-0.353 l -5.094,-6.254 -4.061,-5.147 c -3.334,-4.256 -6,-7.295 -7.967,-9.136 -2.935,-2.776 -5.632,-4.387 -8.154,-4.803 -2.912,-0.506 -5.861,0.416 -8.867,2.785 -1.439,1.135 -2.328,2.006 -2.615,2.605 -0.332,0.577 -0.182,1.254 0.427,2.006 l 3.651,4.659 c 0.305,0.396 0.613,0.638 0.918,0.732 0.305,0.078 0.73,-0.094 1.305,-0.551 l 0.548,-0.414 c 1.786,-1.408 3.487,-1.457 5.161,-0.141 2.257,1.784 7.13,7.405 14.576,16.85 l 6.808,8.662 c 0.504,0.647 0.938,1.012 1.241,1.123 C -1.52,0.873 -0.812,0.639 0,0" /></g><g
           transform="translate(413,384.8594)"
           id="g64"><path
             id="path66"
             style="fill:#ffffff;fill-opacity:1;fill-rule:nonzero;stroke:none"
             d="m 0,0 34.109,26.838 c 0.625,0.517 1.118,0.771 1.455,0.801 0.61,0.029 1.241,-0.354 1.874,-1.164 L 51.119,9.1 C 51.756,8.289 52.02,7.66 51.861,7.213 51.732,6.76 51.324,6.271 50.668,5.756 L 46.83,2.734 C 46.445,2.41 46.023,2.311 45.58,2.391 45.135,2.473 44.678,2.797 44.229,3.344 l -8.36,10.658 c -0.504,0.639 -1.029,0.738 -1.621,0.273 L 28.574,9.799 C 27.926,9.293 27.744,8.844 28.049,8.441 l 6.586,-8.359 c 0.287,-0.357 0.404,-0.711 0.404,-1.094 0,-0.357 -0.141,-0.67 -0.469,-0.933 l -4.943,-3.869 c -0.731,-0.579 -1.356,-0.518 -1.9,0.21 L 21.1,2.809 C 20.73,3.262 20.252,3.24 19.643,2.768 L 11.951,-3.281 C 11.523,-3.617 11.465,-3.98 11.77,-4.367 l 9.371,-11.914 c 0.466,-0.61 0.642,-1.086 0.56,-1.448 -0.094,-0.357 -0.361,-0.699 -0.783,-1.044 l -3.814,-2.981 c -0.643,-0.506 -1.135,-0.789 -1.456,-0.818 -0.609,-0.033 -1.234,0.373 -1.884,1.183 L -0.455,-3.342 c -0.481,0.647 -0.75,1.123 -0.768,1.447 C -1.24,-1.277 -0.836,-0.648 0,0" /></g><g
           transform="translate(483.6152,355.375)"
           id="g68"><path
             id="path70"
             style="fill:#ffffff;fill-opacity:1;fill-rule:nonzero;stroke:none"
             d="m 0,0 -5.686,-2.775 c -0.328,-0.153 -0.621,-0.243 -0.843,-0.243 -0.221,-0.021 -0.426,0.131 -0.567,0.465 -0.24,1.035 -0.527,2.088 -0.841,3.174 -0.288,1.061 -0.627,2.014 -1.036,2.805 -1.31,2.754 -3.078,4.135 -5.289,4.115 -1.357,-0.021 -3.486,-0.74 -6.369,-2.15 L -31.096,0.285 c -3.545,-1.722 -5.697,-3.344 -6.406,-4.824 -0.73,-1.488 -0.461,-3.516 0.791,-6.098 0.69,-1.447 1.322,-2.371 1.824,-2.775 0.528,-0.395 1.094,-1.186 1.692,-2.402 0.285,-0.598 0.064,-1.084 -0.68,-1.459 l -5.504,-2.684 c -0.959,-0.457 -1.894,-0.293 -2.803,0.477 -0.912,0.789 -2.228,2.947 -3.959,6.484 -2.726,5.582 -3.088,10.172 -1.088,13.828 1.411,2.461 4.258,4.752 8.54,6.85 l 17.56,8.572 c 3.686,1.793 6.932,2.33 9.746,1.59 C -7.547,16.883 -4.27,13.65 -1.592,8.146 -0.129,5.127 0.678,2.969 0.795,1.682 0.9,0.873 0.613,0.305 0,0" /></g></g></g><g
       id="g72"><g
         clip-path="url(#clipPath78)"
         id="g74"><g
           transform="translate(83.8867,135.2051)"
           id="g80"><path
             id="path82"
             style="fill:#000f9f;fill-opacity:1;fill-rule:nonzero;stroke:none"
             d="m 0,0 v 10.834 c 0,0.473 0.041,0.789 0.141,0.949 0.222,0.283 0.63,0.436 1.24,0.436 H 4.48 c 0.631,0 0.995,-0.112 1.159,-0.332 0.158,-0.235 0.24,-0.58 0.24,-1.053 V 1.41 c 0,-1.045 0.264,-1.793 0.789,-2.24 0.41,-0.334 0.953,-0.516 1.621,-0.516 0.953,0 1.631,0.364 1.994,1.116 0.27,0.535 0.41,1.212 0.41,2.064 v 9 c 0,0.473 0.036,0.789 0.162,0.949 0.211,0.283 0.616,0.436 1.223,0.436 h 3.102 c 0.607,0 0.982,-0.112 1.14,-0.332 0.164,-0.235 0.246,-0.58 0.246,-1.053 v -25.078 c 0,-0.6 -0.099,-0.994 -0.322,-1.147 -0.228,-0.16 -0.58,-0.242 -1.064,-0.242 h -3.102 c -0.607,0 -0.994,0.123 -1.164,0.336 -0.162,0.242 -0.221,0.576 -0.221,1.053 v 7.932 c 0,0.255 -0.082,0.396 -0.246,0.396 C 9.92,-6.16 9.266,-6.383 8.527,-6.604 7.779,-6.807 7.055,-6.92 6.305,-6.92 4.562,-6.92 3.152,-6.484 2.088,-5.602 0.689,-4.426 0,-2.553 0,0" /></g><g
           transform="translate(110.0098,119.5723)"
           id="g84"><path
             id="path86"
             style="fill:#000f9f;fill-opacity:1;fill-rule:nonzero;stroke:none"
             d="m 0,0 h -3.012 c -0.486,0 -0.812,0.061 -0.982,0.164 -0.287,0.211 -0.428,0.625 -0.428,1.225 v 25.078 c 0,0.472 0.065,0.789 0.164,0.949 0.205,0.283 0.637,0.436 1.246,0.436 h 3.094 c 0.609,0 0.988,-0.112 1.152,-0.332 0.159,-0.235 0.241,-0.581 0.241,-1.053 v -13.01 l 5.334,13.01 c 0.222,0.584 0.445,0.961 0.644,1.135 0.205,0.16 0.508,0.25 0.895,0.25 h 3.24 c 0.609,0 0.994,-0.112 1.152,-0.332 0.147,-0.235 0.223,-0.581 0.223,-1.053 V 1.389 C 12.963,0.912 12.928,0.6 12.805,0.447 12.6,0.164 12.197,0 11.588,0 H 8.471 C 7.861,0 7.477,0.123 7.336,0.336 7.172,0.578 7.09,0.912 7.09,1.389 V 15.045 L 1.826,1.389 C 1.615,0.811 1.375,0.436 1.088,0.254 0.809,0.102 0.445,0 0,0" /></g><g
           transform="translate(142.6328,146.5117)"
           id="g88"><path
             id="path90"
             style="fill:#000f9f;fill-opacity:1;fill-rule:nonzero;stroke:none"
             d="m 0,0 v -3.646 c 0,-0.223 -0.018,-0.383 -0.082,-0.495 -0.041,-0.123 -0.182,-0.185 -0.387,-0.185 -0.607,0.123 -1.234,0.256 -1.883,0.375 -0.66,0.123 -1.246,0.183 -1.785,0.183 -1.8,0 -2.976,-0.578 -3.519,-1.722 -0.369,-0.711 -0.528,-2.006 -0.528,-3.86 v -6.726 c 0,-2.291 0.305,-3.801 0.889,-4.551 0.586,-0.769 1.744,-1.144 3.451,-1.144 0.936,0 1.615,0.089 1.938,0.263 0.344,0.172 0.912,0.254 1.724,0.254 0.387,0 0.586,-0.234 0.586,-0.719 v -3.537 c 0,-0.607 -0.328,-1.054 -0.972,-1.328 -0.649,-0.273 -2.141,-0.414 -4.498,-0.414 -3.633,0 -6.182,0.971 -7.58,2.936 -0.954,1.361 -1.434,3.416 -1.434,6.171 v 11.307 c 0,2.359 0.562,4.174 1.68,5.451 1.496,1.744 4.07,2.616 7.656,2.616 2,0 3.346,-0.124 4.07,-0.399 C -0.229,0.67 0,0.395 0,0" /></g><g
           transform="translate(147.4941,147.4238)"
           id="g92"><path
             id="path94"
             style="fill:#000f9f;fill-opacity:1;fill-rule:nonzero;stroke:none"
             d="m 0,0 h 17.617 c 0.328,0 0.551,-0.1 0.668,-0.303 0.129,-0.193 0.188,-0.416 0.188,-0.646 v -3.537 c 0,-0.559 -0.282,-0.834 -0.856,-0.834 h -5.158 c -0.492,0 -0.738,-0.25 -0.738,-0.715 v -20.428 c 0,-0.476 -0.033,-0.789 -0.139,-0.941 -0.223,-0.283 -0.633,-0.448 -1.246,-0.448 H 7.234 c -0.607,0 -0.994,0.123 -1.134,0.336 -0.163,0.243 -0.239,0.577 -0.239,1.053 v 20.428 c 0,0.465 -0.257,0.715 -0.744,0.715 H 0.123 c -0.674,0 -1.002,0.267 -1.002,0.793 v 3.779 C -0.879,-0.25 -0.568,0 0,0" /></g><g
           transform="translate(176.8164,129.6445)"
           id="g96"><path
             id="path98"
             style="fill:#000f9f;fill-opacity:1;fill-rule:nonzero;stroke:none"
             d="M 0,0 H 3.305 C 3.609,0 3.691,0.203 3.586,0.598 L 1.832,7.641 C 1.797,7.74 1.75,7.83 1.691,7.891 1.609,7.953 1.574,8.002 1.551,8.035 1.387,7.883 1.305,7.74 1.27,7.641 L -0.287,0.598 C -0.385,0.203 -0.305,0 0,0 m -0.871,17.779 h 5.008 c 0.338,0 0.625,-0.07 0.806,-0.201 0.2,-0.131 0.364,-0.435 0.502,-0.912 l 6.448,-25.551 c 0.058,-0.152 0.082,-0.316 0.082,-0.51 0,-0.435 -0.282,-0.677 -0.871,-0.677 H 7.189 c -0.386,0 -0.683,0.123 -0.847,0.316 -0.182,0.223 -0.305,0.473 -0.381,0.799 l -0.795,3.02 c -0.1,0.404 -0.363,0.597 -0.791,0.597 h -5.451 c -0.444,0 -0.731,-0.193 -0.789,-0.597 l -0.75,-3.131 c -0.057,-0.264 -0.18,-0.506 -0.362,-0.709 -0.14,-0.194 -0.427,-0.295 -0.796,-0.295 h -3.866 c -0.509,0 -0.756,0.254 -0.756,0.752 v 0.252 c 0.047,0.111 0.082,0.172 0.082,0.183 l 6.12,25.551 c 0.105,0.477 0.269,0.781 0.451,0.912 0.205,0.131 0.508,0.201 0.871,0.201" /></g><g
           transform="translate(205.2637,136.9687)"
           id="g100"><path
             id="path102"
             style="fill:#000f9f;fill-opacity:1;fill-rule:nonzero;stroke:none"
             d="m 0,0 v 4.691 c 0,0.455 -0.234,0.678 -0.68,0.678 h -1.754 c -1.275,0 -2.222,-0.332 -2.855,-1.002 -0.525,-0.547 -0.807,-1.246 -0.807,-2.056 0,-0.942 0.34,-1.682 1.012,-2.241 0.648,-0.547 1.539,-0.83 2.65,-0.83 h 1.801 C -0.211,-0.76 0,-0.506 0,0 M -2.855,10.455 H 4.48 c 0.62,0 1.006,-0.111 1.165,-0.332 C 5.807,9.889 5.889,9.543 5.889,9.07 v -25.078 c 0,-0.599 -0.123,-0.994 -0.344,-1.146 -0.223,-0.16 -0.568,-0.242 -1.065,-0.242 H 1.379 c -0.584,0 -0.994,0.123 -1.135,0.335 C 0.08,-16.818 0,-16.484 0,-16.008 v 9.877 c 0,0.317 -0.141,0.469 -0.434,0.469 h -0.748 c -0.386,0 -0.662,-0.186 -0.867,-0.547 l -4.709,-10.357 c -0.14,-0.303 -0.285,-0.536 -0.461,-0.647 -0.164,-0.123 -0.527,-0.183 -1.064,-0.183 h -4.119 c -0.643,0 -0.983,0.316 -0.983,0.912 0,0.144 0.047,0.324 0.123,0.517 l 5.149,10.748 c 0.121,0.256 0.203,0.487 0.203,0.639 0,0.164 -0.162,0.316 -0.496,0.476 -0.545,0.264 -0.912,0.458 -1.117,0.6 -1.094,0.84 -1.909,1.863 -2.411,3.068 -0.404,0.954 -0.586,1.977 -0.586,3.1 0,2.027 0.668,3.758 2.067,5.156 1.701,1.764 4.252,2.635 7.598,2.635" /></g><g
           transform="translate(231.6445,147.4238)"
           id="g104"><path
             id="path106"
             style="fill:#000f9f;fill-opacity:1;fill-rule:nonzero;stroke:none"
             d="m 0,0 h 14.553 c 0.631,0 0.994,-0.111 1.158,-0.332 0.158,-0.234 0.24,-0.58 0.24,-1.053 v -25.078 c 0,-0.476 -0.041,-0.789 -0.158,-0.941 -0.211,-0.283 -0.609,-0.448 -1.24,-0.448 h -3.088 c -0.61,0 -1.006,0.123 -1.17,0.336 -0.158,0.243 -0.24,0.577 -0.24,1.053 v 20.74 c 0,0.424 -0.205,0.637 -0.627,0.637 H 5.1 c -0.409,0 -0.608,-0.193 -0.608,-0.596 v -20.781 c 0,-0.599 -0.123,-0.994 -0.334,-1.146 -0.24,-0.161 -0.59,-0.243 -1.07,-0.243 H 0 c -0.48,0 -0.797,0.061 -0.961,0.165 -0.279,0.21 -0.42,0.625 -0.42,1.224 v 25.078 c 0,0.473 0.035,0.789 0.141,0.949 C -1.02,-0.152 -0.615,0 0,0" /></g><g
           transform="translate(257.1816,119.5723)"
           id="g108"><path
             id="path110"
             style="fill:#000f9f;fill-opacity:1;fill-rule:nonzero;stroke:none"
             d="M 0,0 H -3.018 C -3.51,0 -3.813,0.061 -3.977,0.164 -4.281,0.375 -4.398,0.789 -4.398,1.389 v 25.078 c 0,0.472 0.035,0.789 0.14,0.949 0.223,0.283 0.633,0.436 1.24,0.436 h 3.1 c 0.627,0 1.006,-0.112 1.17,-0.332 0.164,-0.235 0.223,-0.581 0.223,-1.053 v -13.01 l 5.336,13.01 c 0.238,0.584 0.46,0.961 0.666,1.135 0.181,0.16 0.486,0.25 0.888,0.25 h 3.217 c 0.604,0 0.99,-0.112 1.147,-0.332 0.152,-0.235 0.234,-0.581 0.234,-1.053 V 1.389 C 12.963,0.912 12.928,0.6 12.822,0.447 12.588,0.164 12.186,0 11.582,0 H 8.471 C 7.863,0 7.5,0.123 7.336,0.336 7.172,0.578 7.09,0.912 7.09,1.389 V 15.045 L 1.826,1.389 C 1.615,0.811 1.375,0.436 1.088,0.254 0.832,0.102 0.463,0 0,0" /></g><g
           transform="translate(274.8125,147.4238)"
           id="g112"><path
             id="path114"
             style="fill:#000f9f;fill-opacity:1;fill-rule:nonzero;stroke:none"
             d="m 0,0 h 17.625 c 0.305,0 0.525,-0.1 0.648,-0.303 0.118,-0.193 0.182,-0.416 0.182,-0.646 v -3.537 c 0,-0.559 -0.287,-0.834 -0.83,-0.834 h -5.166 c -0.49,0 -0.713,-0.25 -0.713,-0.715 v -20.428 c 0,-0.476 -0.058,-0.789 -0.158,-0.941 -0.229,-0.283 -0.649,-0.448 -1.234,-0.448 H 7.242 c -0.609,0 -1.006,0.123 -1.17,0.336 -0.158,0.243 -0.24,0.577 -0.24,1.053 v 20.428 c 0,0.465 -0.223,0.715 -0.707,0.715 h -5.02 c -0.654,0 -0.982,0.267 -0.982,0.793 v 3.779 C -0.877,-0.25 -0.59,0 0,0" /></g><g
           transform="translate(303.3398,131.75)"
           id="g116"><path
             id="path118"
             style="fill:#000f9f;fill-opacity:1;fill-rule:nonzero;stroke:none"
             d="m 0,0 v -6.17 c 0,-0.375 0.182,-0.557 0.527,-0.557 h 2.575 c 0.918,0 1.689,0.375 2.298,1.123 0.596,0.752 0.877,1.612 0.877,2.596 0,1.002 -0.316,1.832 -0.982,2.531 -0.668,0.68 -1.568,1.036 -2.68,1.036 H 0.568 C 0.182,0.559 0,0.375 0,0 m -5.902,-10.789 v 25.078 c 0,0.473 0.064,0.789 0.164,0.949 0.222,0.283 0.633,0.436 1.24,0.436 h 3.113 c 0.614,0 1,-0.111 1.158,-0.332 C -0.082,15.107 0,14.762 0,14.289 V 6.201 C 0,5.889 0.158,5.736 0.486,5.736 h 2.936 c 2.937,0 5.207,-0.841 6.832,-2.511 1.627,-1.663 2.451,-3.932 2.451,-6.77 0,-3.394 -1.164,-5.783 -3.486,-7.203 -1.578,-0.953 -3.678,-1.43 -6.323,-1.43 h -7.394 c -0.607,0 -0.994,0.123 -1.158,0.336 -0.141,0.242 -0.246,0.576 -0.246,1.053" /></g><g
           transform="translate(320.6133,120.9609)"
           id="g120"><path
             id="path122"
             style="fill:#000f9f;fill-opacity:1;fill-rule:nonzero;stroke:none"
             d="m 0,0 v 25.078 c 0,0.473 0.041,0.789 0.164,0.949 0.199,0.284 0.609,0.436 1.24,0.436 h 13.034 c 0.607,0 0.994,-0.111 1.158,-0.332 0.164,-0.235 0.24,-0.58 0.24,-1.053 V 22.26 c 0,-0.303 -0.1,-0.537 -0.305,-0.698 -0.205,-0.173 -0.51,-0.255 -0.929,-0.255 H 6.611 c -0.504,0 -0.744,-0.223 -0.744,-0.649 v -4.174 c 0,-0.476 0.141,-0.718 0.457,-0.718 h 6.27 c 0.275,0 0.498,-0.071 0.679,-0.194 0.159,-0.14 0.241,-0.324 0.241,-0.556 v -3.627 c 0,-0.537 -0.258,-0.801 -0.785,-0.801 H 6.4 C 6.049,10.588 5.867,10.354 5.867,9.91 V 4.256 c 0,-0.317 0.141,-0.477 0.457,-0.477 h 8.944 c 0.445,0 0.748,-0.082 0.888,-0.254 0.129,-0.173 0.188,-0.423 0.188,-0.74 V 0 c 0,-0.477 -0.041,-0.789 -0.141,-0.941 -0.223,-0.284 -0.631,-0.448 -1.24,-0.448 H 1.404 c -0.49,0 -0.818,0.061 -0.982,0.164 C 0.141,-1.014 0,-0.6 0,0" /></g><g
           transform="translate(348.3398,124.7402)"
           id="g124"><path
             id="path126"
             style="fill:#000f9f;fill-opacity:1;fill-rule:nonzero;stroke:none"
             d="M 0,0 H 1.826 C 3.229,0 4.283,0.324 5.02,0.982 5.727,1.641 6.107,2.463 6.107,3.445 6.107,4.449 5.768,5.246 5.125,5.896 4.369,6.627 3.264,7.01 1.826,7.01 H 0.129 C -0.176,7.01 -0.338,6.949 -0.396,6.809 -0.479,6.666 -0.531,6.514 -0.531,6.332 V 0.477 C -0.531,0.16 -0.338,0 0,0 m 1.504,12.188 c 1.258,0 2.187,0.253 2.779,0.759 0.631,0.518 0.936,1.168 0.936,1.926 0,0.731 -0.24,1.318 -0.727,1.775 -0.637,0.577 -1.631,0.879 -3.029,0.879 H 0.211 c -0.49,0 -0.742,-0.193 -0.742,-0.566 v -4.305 c 0,-0.304 0.275,-0.468 0.777,-0.468 z M -6.398,-3.82 v 25.39 c 0,0.448 0.082,0.748 0.281,0.893 0.185,0.15 0.49,0.221 0.894,0.221 h 7.68 c 3.049,0 5.348,-0.707 6.891,-2.096 1.357,-1.256 2.035,-2.899 2.035,-4.936 0,-1.273 -0.326,-2.408 -0.965,-3.382 C 9.793,11.287 8.84,10.525 7.605,10.029 V 9.877 c 1.52,-0.494 2.69,-1.387 3.557,-2.633 0.848,-1.236 1.303,-2.705 1.303,-4.418 0,-2.328 -0.678,-4.174 -2.006,-5.572 -1.555,-1.611 -3.93,-2.422 -7.172,-2.422 h -8.51 c -0.773,0 -1.175,0.457 -1.175,1.348" /></g><g
           transform="translate(372.8145,129.6445)"
           id="g128"><path
             id="path130"
             style="fill:#000f9f;fill-opacity:1;fill-rule:nonzero;stroke:none"
             d="M 0,0 H 3.287 C 3.592,0 3.674,0.203 3.574,0.598 L 1.83,7.641 C 1.812,7.74 1.766,7.83 1.691,7.891 1.627,7.953 1.592,8.002 1.568,8.035 1.404,7.883 1.287,7.74 1.287,7.641 L -0.287,0.598 C -0.387,0.203 -0.287,0 0,0 m -0.883,17.779 h 5 c 0.352,0 0.633,-0.07 0.815,-0.201 0.205,-0.131 0.367,-0.435 0.507,-0.912 l 6.448,-25.551 c 0.058,-0.152 0.076,-0.316 0.076,-0.51 0,-0.435 -0.287,-0.677 -0.873,-0.677 H 7.195 c -0.386,0 -0.674,0.123 -0.853,0.316 -0.164,0.223 -0.305,0.473 -0.387,0.799 l -0.801,3.02 C 5.055,-5.533 4.809,-5.34 4.363,-5.34 h -5.451 c -0.445,0 -0.707,-0.193 -0.789,-0.597 l -0.75,-3.131 c -0.064,-0.264 -0.164,-0.506 -0.344,-0.709 -0.164,-0.194 -0.422,-0.295 -0.808,-0.295 h -3.848 c -0.533,0 -0.773,0.254 -0.773,0.752 v 0.252 c 0.058,0.111 0.082,0.172 0.082,0.183 l 6.119,25.551 c 0.117,0.477 0.258,0.781 0.469,0.912 0.173,0.131 0.46,0.201 0.847,0.201" /></g><g
           transform="translate(401.2715,136.9687)"
           id="g132"><path
             id="path134"
             style="fill:#000f9f;fill-opacity:1;fill-rule:nonzero;stroke:none"
             d="m 0,0 v 4.691 c 0,0.455 -0.238,0.678 -0.689,0.678 h -1.75 C -3.725,5.369 -4.662,5.037 -5.305,4.367 -5.832,3.82 -6.1,3.121 -6.1,2.311 c 0,-0.942 0.327,-1.682 0.995,-2.241 0.666,-0.547 1.537,-0.83 2.666,-0.83 h 1.791 C -0.221,-0.76 0,-0.506 0,0 m -2.865,10.455 h 7.351 c 0.598,0 0.985,-0.111 1.147,-0.332 C 5.797,9.889 5.879,9.543 5.879,9.07 v -25.078 c 0,-0.599 -0.129,-0.994 -0.35,-1.146 -0.222,-0.16 -0.562,-0.242 -1.043,-0.242 H 1.375 c -0.607,0 -0.994,0.123 -1.152,0.335 C 0.082,-16.818 0,-16.484 0,-16.008 v 9.877 c 0,0.317 -0.164,0.469 -0.449,0.469 h -0.75 c -0.391,0 -0.655,-0.186 -0.836,-0.547 l -4.733,-10.357 c -0.14,-0.303 -0.281,-0.536 -0.466,-0.647 -0.182,-0.123 -0.528,-0.183 -1.065,-0.183 h -4.119 c -0.654,0 -0.959,0.316 -0.959,0.912 0,0.144 0.047,0.324 0.129,0.517 l 5.111,10.748 c 0.153,0.256 0.211,0.487 0.211,0.639 0,0.164 -0.17,0.316 -0.49,0.476 -0.551,0.264 -0.914,0.458 -1.117,0.6 -1.106,0.84 -1.914,1.863 -2.422,3.068 -0.381,0.954 -0.592,1.977 -0.592,3.1 0,2.027 0.692,3.758 2.07,5.156 1.709,1.764 4.26,2.635 7.612,2.635" /></g><g
           transform="translate(432.6191,124.7402)"
           id="g136"><path
             id="path138"
             style="fill:#000f9f;fill-opacity:1;fill-rule:nonzero;stroke:none"
             d="m 0,0 h 1.826 c 1.391,0 2.449,0.324 3.17,0.982 0.707,0.659 1.082,1.481 1.082,2.463 0,1.004 -0.31,1.801 -0.965,2.451 C 4.352,6.627 3.24,7.01 1.826,7.01 H 0.1 C -0.182,7.01 -0.363,6.949 -0.428,6.809 -0.496,6.666 -0.537,6.514 -0.537,6.332 V 0.477 C -0.537,0.16 -0.346,0 0,0 m 1.498,12.188 c 1.258,0 2.17,0.253 2.777,0.759 0.616,0.518 0.92,1.168 0.92,1.926 0,0.731 -0.222,1.318 -0.709,1.775 -0.636,0.577 -1.648,0.879 -3.023,0.879 H 0.199 c -0.463,0 -0.736,-0.193 -0.736,-0.566 v -4.305 c 0,-0.304 0.273,-0.468 0.783,-0.468 z M -6.398,-3.82 v 25.39 c 0,0.448 0.076,0.748 0.279,0.893 0.182,0.15 0.486,0.221 0.914,0.221 h 7.656 c 3.047,0 5.352,-0.707 6.891,-2.096 1.357,-1.256 2.035,-2.899 2.035,-4.936 0,-1.273 -0.32,-2.408 -0.965,-3.382 C 9.77,11.287 8.832,10.525 7.6,10.029 V 9.877 C 9.102,9.383 10.271,8.49 11.154,7.244 12.004,6.008 12.43,4.539 12.43,2.826 12.43,0.498 11.781,-1.348 10.459,-2.746 8.873,-4.357 6.504,-5.168 3.281,-5.168 h -8.486 c -0.815,0 -1.193,0.457 -1.193,1.348" /></g><g
           transform="translate(461.2461,130.3945)"
           id="g140"><path
             id="path142"
             style="fill:#000f9f;fill-opacity:1;fill-rule:nonzero;stroke:none"
             d="m 0,0 v 6.221 c 0,2.066 -0.117,3.465 -0.338,4.215 -0.387,1.154 -1.193,1.752 -2.433,1.752 -1.247,0 -2.067,-0.577 -2.434,-1.711 -0.24,-0.75 -0.363,-2.168 -0.363,-4.256 V 0 c 0,-2.068 0.123,-3.467 0.363,-4.215 0.367,-1.176 1.187,-1.752 2.434,-1.752 1.24,0 2.046,0.576 2.433,1.711 C -0.117,-3.508 0,-2.09 0,0 m -11.465,-0.67 v 7.561 c 0,2.642 0.375,4.72 1.041,6.209 1.352,2.828 3.885,4.246 7.653,4.246 3.527,0 5.964,-1.266 7.357,-3.811 0.889,-1.621 1.316,-3.84 1.316,-6.644 V -0.67 c 0,-2.633 -0.345,-4.691 -1.035,-6.168 -1.316,-2.869 -3.89,-4.297 -7.638,-4.297 -2.961,0 -5.125,0.852 -6.547,2.553 -1.409,1.723 -2.147,4.355 -2.147,7.912" /></g><g
           transform="translate(484.5332,125.2988)"
           id="g144"><path
             id="path146"
             style="fill:#000f9f;fill-opacity:1;fill-rule:nonzero;stroke:none"
             d="m 0,0 v 16.484 c 0,0.321 -0.158,0.485 -0.463,0.485 h -2.012 c -0.339,0 -0.502,-0.164 -0.502,-0.485 l -0.205,-2.463 c 0,-4.103 -0.24,-6.912 -0.732,-8.482 C -4.457,3.705 -4.885,1.871 -5.211,0.037 v -0.312 c 0.047,-0.182 0.227,-0.284 0.549,-0.284 h 4.107 C -0.182,-0.559 0,-0.365 0,0 M -7.33,22.125 H 4.486 c 0.633,0 0.994,-0.111 1.159,-0.332 0.164,-0.234 0.246,-0.58 0.246,-1.053 V 0 c 0,-0.266 0.017,-0.418 0.058,-0.477 0.035,-0.052 0.188,-0.082 0.416,-0.082 h 0.889 c 0.467,0 0.789,-0.048 0.93,-0.152 0.304,-0.213 0.445,-0.617 0.445,-1.225 v -7.5 c 0,-0.605 -0.094,-0.982 -0.34,-1.154 -0.223,-0.15 -0.568,-0.232 -1.035,-0.232 H 4.316 c -0.589,0 -0.976,0.111 -1.134,0.334 -0.164,0.222 -0.241,0.58 -0.241,1.052 v 3.114 c 0,0.402 -0.209,0.595 -0.63,0.595 h -9.676 c -0.467,0 -0.713,-0.23 -0.713,-0.759 v -2.95 c 0,-0.605 -0.1,-0.99 -0.34,-1.154 -0.232,-0.15 -0.578,-0.232 -1.064,-0.232 h -2.901 c -0.609,0 -0.971,0.111 -1.146,0.345 -0.159,0.223 -0.241,0.569 -0.241,1.041 v 7.5 c 0,0.608 0.124,0.983 0.334,1.143 0.245,0.152 0.59,0.234 1.053,0.234 h 0.367 c 0.405,0 0.733,0.424 1.037,1.276 0.139,0.387 0.28,1.054 0.479,2.027 0.592,2.869 1.053,5.776 1.34,8.725 0.205,2.207 0.322,4.316 0.322,6.373 l 0.106,3.129 c 0,0.558 0.123,0.883 0.332,0.994 0.222,0.111 0.568,0.16 1.07,0.16" /></g><g
           transform="translate(504.2285,129.6445)"
           id="g148"><path
             id="path150"
             style="fill:#000f9f;fill-opacity:1;fill-rule:nonzero;stroke:none"
             d="M 0,0 H 3.287 C 3.592,0 3.686,0.203 3.568,0.598 L 1.824,7.641 C 1.801,7.74 1.766,7.83 1.684,7.891 1.627,7.953 1.58,8.002 1.545,8.035 1.398,7.883 1.299,7.74 1.275,7.641 L -0.281,0.598 C -0.387,0.203 -0.281,0 0,0 m -0.877,17.779 h 5.012 c 0.357,0 0.615,-0.07 0.82,-0.201 0.203,-0.131 0.367,-0.435 0.484,-0.912 l 6.448,-25.551 c 0.058,-0.152 0.099,-0.316 0.099,-0.51 0,-0.435 -0.304,-0.677 -0.89,-0.677 H 7.195 c -0.386,0 -0.668,0.123 -0.855,0.316 -0.162,0.223 -0.279,0.473 -0.361,0.799 l -0.803,3.02 C 5.055,-5.533 4.797,-5.34 4.387,-5.34 h -5.469 c -0.451,0 -0.709,-0.193 -0.789,-0.597 l -0.762,-3.131 c -0.058,-0.264 -0.164,-0.506 -0.344,-0.709 -0.164,-0.194 -0.451,-0.295 -0.791,-0.295 H -7.65 c -0.504,0 -0.75,0.254 -0.75,0.752 v 0.252 c 0.058,0.111 0.082,0.172 0.082,0.183 l 6.142,25.551 c 0.1,0.477 0.246,0.781 0.444,0.912 0.199,0.131 0.486,0.201 0.855,0.201" /></g></g></g><g
       id="g152"><g
         clip-path="url(#clipPath158)"
         id="g154"><g
           transform="translate(437.7324,160.5859)"
           id="g160"><path
             id="path162"
             style="fill:#6d4328;fill-opacity:1;fill-rule:nonzero;stroke:none"
             d="M 0,0 3.381,109.998 H 6.445 L 9.82,0 Z" /></g><g
           transform="translate(442.668,270.584)"
           id="g164"><path
             id="path166"
             style="fill:#643b23;fill-opacity:1;fill-rule:nonzero;stroke:none"
             d="M 0,0 H 1.51 L 4.885,-109.998 H 0 Z" /></g><g
           transform="translate(442.8555,201.2461)"
           id="g168"><path
             id="path170"
             style="fill:#68b330;fill-opacity:1;fill-rule:nonzero;stroke:none"
             d="M 0,0 31.424,33.35 H -0.211 -31.855 Z" /></g><g
           transform="translate(442.8555,201.2461)"
           id="g172"><path
             id="path174"
             style="fill:#5ca02b;fill-opacity:1;fill-rule:nonzero;stroke:none"
             d="M 0,0 31.424,33.35 H -0.211 Z" /></g><g
           transform="translate(442.4238,267.9609)"
           id="g176"><path
             id="path178"
             style="fill:#51976f;fill-opacity:1;fill-rule:nonzero;stroke:none"
             d="M 0,0 -31.424,-33.365 H 0.221 31.855 Z" /></g><g
           transform="translate(442.4238,267.9609)"
           id="g180"><path
             id="path182"
             style="fill:#4a8864;fill-opacity:1;fill-rule:nonzero;stroke:none"
             d="M 0,0 0.221,-33.365 H 31.855 Z" /></g><g
           transform="translate(442.5059,280.918)"
           id="g184"><path
             id="path186"
             style="fill:#78b563;fill-opacity:1;fill-rule:nonzero;stroke:none"
             d="M 0,0 -21.82,-23.148 H 0.139 22.109 Z" /></g><g
           transform="translate(442.791,234.6172)"
           id="g188"><path
             id="path190"
             style="fill:#68b330;fill-opacity:1;fill-rule:nonzero;stroke:none"
             d="M 0,0 21.824,23.152 H -0.146 -22.105 Z" /></g><g
           transform="translate(442.5059,280.918)"
           id="g192"><path
             id="path194"
             style="fill:#6da259;fill-opacity:1;fill-rule:nonzero;stroke:none"
             d="m 0,0 0.139,-23.148 h 21.97 z" /></g><g
           transform="translate(442.791,234.6172)"
           id="g196"><path
             id="path198"
             style="fill:#5ca02b;fill-opacity:1;fill-rule:nonzero;stroke:none"
             d="M 0,0 21.824,23.152 H -0.146 Z" /></g><g
           transform="translate(442.5293,291.9121)"
           id="g200"><path
             id="path202"
             style="fill:#acc807;fill-opacity:1;fill-rule:nonzero;stroke:none"
             d="M 0,0 -16.07,-17.062 H 0.115 16.307 Z" /></g><g
           transform="translate(442.75,257.7695)"
           id="g204"><path
             id="path206"
             style="fill:#9ec650;fill-opacity:1;fill-rule:nonzero;stroke:none"
             d="M 0,0 16.086,17.08 H -0.105 -16.291 Z" /></g><g
           transform="translate(442.5293,291.9121)"
           id="g208"><path
             id="path210"
             style="fill:#9cb810;fill-opacity:1;fill-rule:nonzero;stroke:none"
             d="M 0,0 0.115,-17.062 H 16.307 Z" /></g><g
           transform="translate(442.75,257.7695)"
           id="g212"><path
             id="path214"
             style="fill:#90b346;fill-opacity:1;fill-rule:nonzero;stroke:none"
             d="M 0,0 16.086,17.08 H -0.105 Z" /></g><g
           transform="translate(480.8418,160.5859)"
           id="g216"><path
             id="path218"
             style="fill:#6d4328;fill-opacity:1;fill-rule:nonzero;stroke:none"
             d="M 0,0 2.059,74.438 H 3.031 3.979 L 6.061,0 h -3.03 z" /></g><g
           transform="translate(483.873,235.0234)"
           id="g220"><path
             id="path222"
             style="fill:#643b23;fill-opacity:1;fill-rule:nonzero;stroke:none"
             d="M 0,0 H 0.947 L 3.029,-74.438 H 0 Z" /></g><g
           transform="translate(483.7324,233.3906)"
           id="g224"><path
             id="path226"
             style="fill:#51976f;fill-opacity:1;fill-rule:nonzero;stroke:none"
             d="M 0,0 -19.613,-20.83 H 0.123 19.887 Z" /></g><g
           transform="translate(483.9941,191.7598)"
           id="g228"><path
             id="path230"
             style="fill:#68b330;fill-opacity:1;fill-rule:nonzero;stroke:none"
             d="M 0,0 19.625,20.801 H -0.139 -19.875 Z" /></g><g
           transform="translate(483.7324,233.3906)"
           id="g232"><path
             id="path234"
             style="fill:#4a8864;fill-opacity:1;fill-rule:nonzero;stroke:none"
             d="M 0,0 0.123,-20.83 H 19.887 Z" /></g><g
           transform="translate(483.9941,191.7598)"
           id="g236"><path
             id="path238"
             style="fill:#5ca02b;fill-opacity:1;fill-rule:nonzero;stroke:none"
             d="M 0,0 19.625,20.801 H -0.139 Z" /></g><g
           transform="translate(483.9551,212.582)"
           id="g240"><path
             id="path242"
             style="fill:#1a7f44;fill-opacity:1;fill-rule:nonzero;stroke:none"
             d="M 0,0 13.629,14.457 H -0.1 -13.799 Z" /></g><g
           transform="translate(483.9551,212.582)"
           id="g244"><path
             id="path246"
             style="fill:#17723e;fill-opacity:1;fill-rule:nonzero;stroke:none"
             d="M 0,0 13.629,14.457 H -0.1 Z" /></g><g
           transform="translate(483.7734,241.4668)"
           id="g248"><path
             id="path250"
             style="fill:#96bd19;fill-opacity:1;fill-rule:nonzero;stroke:none"
             d="M 0,0 -13.617,-14.428 H 0.082 13.811 Z" /></g><g
           transform="translate(483.7734,241.4668)"
           id="g252"><path
             id="path254"
             style="fill:#89ad1a;fill-opacity:1;fill-rule:nonzero;stroke:none"
             d="M 0,0 0.082,-14.428 H 13.811 Z" /></g><g
           transform="translate(483.9375,227.0391)"
           id="g256"><path
             id="path258"
             style="fill:#78b563;fill-opacity:1;fill-rule:nonzero;stroke:none"
             d="M 0,0 10.02,10.648 H -0.082 -10.186 Z" /></g><g
           transform="translate(483.9375,227.0391)"
           id="g260"><path
             id="path262"
             style="fill:#6da25a;fill-opacity:1;fill-rule:nonzero;stroke:none"
             d="M 0,0 10.02,10.648 H -0.082 Z" /></g><g
           transform="translate(483.791,248.3359)"
           id="g264"><path
             id="path266"
             style="fill:#acc807;fill-opacity:1;fill-rule:nonzero;stroke:none"
             d="M 0,0 -10.039,-10.648 H 0.064 10.166 Z" /></g><g
           transform="translate(483.791,248.3359)"
           id="g268"><path
             id="path270"
             style="fill:#98b613;fill-opacity:1;fill-rule:nonzero;stroke:none"
             d="M 0,0 0.064,-10.648 H 10.166 Z" /></g><g
           transform="translate(225.2441,151.3457)"
           id="g272"><path
             id="path274"
             style="fill:#6d4328;fill-opacity:1;fill-rule:nonzero;stroke:none"
             d="m 0,0 h -14.904 l 5.119,140.941 h 4.662 z" /></g><g
           transform="translate(225.2441,151.3457)"
           id="g276"><path
             id="path278"
             style="fill:#643b23;fill-opacity:1;fill-rule:nonzero;stroke:none"
             d="m 0,0 h -7.463 l 0.059,140.941 h 2.281 z" /></g><g
           transform="translate(217.4766,288.3262)"
           id="g280"><path
             id="path282"
             style="fill:#51976f;fill-opacity:1;fill-rule:nonzero;stroke:none"
             d="M 0,0 -47.428,-50.326 H 0.305 48.035 Z" /></g><g
           transform="translate(217.4766,288.3262)"
           id="g284"><path
             id="path286"
             style="fill:#4a8864;fill-opacity:1;fill-rule:nonzero;stroke:none"
             d="m 0,0 0.305,-50.326 h 47.73 z" /></g><g
           transform="translate(218.1309,187.709)"
           id="g288"><path
             id="path290"
             style="fill:#68b330;fill-opacity:1;fill-rule:nonzero;stroke:none"
             d="M 0,0 47.381,50.291 H -0.35 -48.082 Z" /></g><g
           transform="translate(217.5762,307.8809)"
           id="g292"><path
             id="path294"
             style="fill:#78b563;fill-opacity:1;fill-rule:nonzero;stroke:none"
             d="M 0,0 -32.91,-34.924 H 0.205 33.342 Z" /></g><g
           transform="translate(218.0195,238.041)"
           id="g296"><path
             id="path298"
             style="fill:#1a7f44;fill-opacity:1;fill-rule:nonzero;stroke:none"
             d="M 0,0 32.898,34.916 H -0.238 -33.354 Z" /></g><g
           transform="translate(217.5762,307.8809)"
           id="g300"><path
             id="path302"
             style="fill:#6da257;fill-opacity:1;fill-rule:nonzero;stroke:none"
             d="M 0,0 0.205,-34.924 H 33.342 Z" /></g><g
           transform="translate(218.0195,238.041)"
           id="g304"><path
             id="path306"
             style="fill:#17723e;fill-opacity:1;fill-rule:nonzero;stroke:none"
             d="M 0,0 32.898,34.916 H -0.238 Z" /></g><g
           transform="translate(218.1309,187.709)"
           id="g308"><path
             id="path310"
             style="fill:#5ca02b;fill-opacity:1;fill-rule:nonzero;stroke:none"
             d="M 0,0 47.381,50.291 H -0.35 Z" /></g><g
           transform="translate(217.6406,324.4434)"
           id="g312"><path
             id="path314"
             style="fill:#acc807;fill-opacity:1;fill-rule:nonzero;stroke:none"
             d="M 0,0 -24.252,-25.723 H 0.141 24.566 Z" /></g><g
           transform="translate(217.9551,272.957)"
           id="g316"><path
             id="path318"
             style="fill:#9ec650;fill-opacity:1;fill-rule:nonzero;stroke:none"
             d="M 0,0 24.252,25.752 H -0.174 -24.566 Z" /></g><g
           transform="translate(217.6406,324.4434)"
           id="g320"><path
             id="path322"
             style="fill:#9bb812;fill-opacity:1;fill-rule:nonzero;stroke:none"
             d="M 0,0 0.141,-25.723 H 24.566 Z" /></g><g
           transform="translate(217.9551,272.957)"
           id="g324"><path
             id="path326"
             style="fill:#90b346;fill-opacity:1;fill-rule:nonzero;stroke:none"
             d="M 0,0 24.252,25.752 H -0.174 Z" /></g><g
           transform="translate(269.9863,182.8672)"
           id="g328"><path
             id="path330"
             style="fill:#5ab03b;fill-opacity:1;fill-rule:nonzero;stroke:none"
             d="M 0,0 -22.35,-29.658 H 0.123 22.598 Z" /></g><g
           transform="translate(269.9863,182.8672)"
           id="g332"><path
             id="path334"
             style="fill:#509d35;fill-opacity:1;fill-rule:nonzero;stroke:none"
             d="M 0,0 0.123,-29.658 H 22.598 Z" /></g><g
           transform="translate(269.9102,200.0293)"
           id="g336"><path
             id="path338"
             style="fill:#51976f;fill-opacity:1;fill-rule:nonzero;stroke:none"
             d="M 0,0 -20.42,-25.008 H 0.117 20.643 Z" /></g><g
           transform="translate(269.9102,200.0293)"
           id="g340"><path
             id="path342"
             style="fill:#4a8864;fill-opacity:1;fill-rule:nonzero;stroke:none"
             d="M 0,0 0.117,-25.008 H 20.643 Z" /></g><g
           transform="translate(269.8516,214.7598)"
           id="g344"><path
             id="path346"
             style="fill:#78b563;fill-opacity:1;fill-rule:nonzero;stroke:none"
             d="M 0,0 -18.811,-21.389 H 0.082 18.988 Z" /></g><g
           transform="translate(269.8516,214.7598)"
           id="g348"><path
             id="path350"
             style="fill:#6da257;fill-opacity:1;fill-rule:nonzero;stroke:none"
             d="M 0,0 0.082,-21.389 H 18.988 Z" /></g><g
           transform="translate(269.793,227.5156)"
           id="g352"><path
             id="path354"
             style="fill:#acc807;fill-opacity:1;fill-rule:nonzero;stroke:none"
             d="M 0,0 -17.436,-18.5 H 0.059 17.578 Z" /></g><g
           transform="translate(269.793,227.5156)"
           id="g356"><path
             id="path358"
             style="fill:#9bb812;fill-opacity:1;fill-rule:nonzero;stroke:none"
             d="M 0,0 0.059,-18.5 H 17.578 Z" /></g><g
           transform="translate(256.5039,177.7891)"
           id="g360"><path
             id="path362"
             style="fill:#77ab8b;fill-opacity:1;fill-rule:nonzero;stroke:none"
             d="M 0,0 C -24.123,0 -43.701,-19.576 -43.701,-43.707 H 43.695 C 43.695,-19.576 24.123,0 0,0" /></g><g
           transform="translate(155.2559,199.0859)"
           id="g364"><path
             id="path366"
             style="fill:#68b330;fill-opacity:1;fill-rule:nonzero;stroke:none"
             d="M 0,0 -22.076,-29.303 H 0.123 22.316 Z" /></g><g
           transform="translate(155.2559,199.0859)"
           id="g368"><path
             id="path370"
             style="fill:#5ca02b;fill-opacity:1;fill-rule:nonzero;stroke:none"
             d="M 0,0 0.123,-29.303 H 22.316 Z" /></g><g
           transform="translate(155.1914,216.0566)"
           id="g372"><path
             id="path374"
             style="fill:#96bd19;fill-opacity:1;fill-rule:nonzero;stroke:none"
             d="M 0,0 -20.18,-24.711 H 0.105 20.391 Z" /></g><g
           transform="translate(155.1914,216.0566)"
           id="g376"><path
             id="path378"
             style="fill:#88aa19;fill-opacity:1;fill-rule:nonzero;stroke:none"
             d="M 0,0 0.105,-24.711 H 20.391 Z" /></g><g
           transform="translate(155.1328,230.6074)"
           id="g380"><path
             id="path382"
             style="fill:#78b563;fill-opacity:1;fill-rule:nonzero;stroke:none"
             d="M 0,0 -18.578,-21.127 H 0.082 18.766 Z" /></g><g
           transform="translate(155.1328,230.6074)"
           id="g384"><path
             id="path386"
             style="fill:#6da257;fill-opacity:1;fill-rule:nonzero;stroke:none"
             d="M 0,0 0.082,-21.127 H 18.766 Z" /></g><g
           transform="translate(155.0742,243.209)"
           id="g388"><path
             id="path390"
             style="fill:#acc807;fill-opacity:1;fill-rule:nonzero;stroke:none"
             d="M 0,0 -17.221,-18.256 H 0.082 17.373 Z" /></g><g
           transform="translate(155.0742,243.209)"
           id="g392"><path
             id="path394"
             style="fill:#9bb812;fill-opacity:1;fill-rule:nonzero;stroke:none"
             d="M 0,0 0.082,-18.256 H 17.373 Z" /></g><g
           transform="translate(180.8477,179.3711)"
           id="g396"><path
             id="path398"
             style="fill:#77ab8b;fill-opacity:1;fill-rule:nonzero;stroke:none"
             d="M 0,0 C -11.307,0 -20.463,-9.168 -20.463,-20.477 H 20.484 C 20.484,-9.168 11.324,0 0,0" /></g><g
           transform="translate(116.4512,172.0449)"
           id="g400"><path
             id="path402"
             style="fill:#6d4328;fill-opacity:1;fill-rule:nonzero;stroke:none"
             d="m 0,0 h -10.922 l 3.75,155.367 h 3.434 z" /></g><g
           transform="translate(116.5508,172.0449)"
           id="g404"><path
             id="path406"
             style="fill:#643b23;fill-opacity:1;fill-rule:nonzero;stroke:none"
             d="m 0,0 h -6.201 v 155.367 h 1.93 z" /></g><g
           transform="translate(110.209,256.7949)"
           id="g408"><path
             id="path410"
             style="fill:#51976f;fill-opacity:1;fill-rule:nonzero;stroke:none"
             d="M 0,0 -30.674,-51.75 H 0.164 31.025 Z" /></g><g
           transform="translate(110.1094,286.7637)"
           id="g412"><path
             id="path414"
             style="fill:#78b563;fill-opacity:1;fill-rule:nonzero;stroke:none"
             d="M 0,0 -28.025,-43.637 H 0.141 28.33 Z" /></g><g
           transform="translate(110.0098,312.4492)"
           id="g416"><path
             id="path418"
             style="fill:#9ec650;fill-opacity:1;fill-rule:nonzero;stroke:none"
             d="M 0,0 -25.818,-37.297 H 0.117 26.078 Z" /></g><g
           transform="translate(109.9453,334.7266)"
           id="g420"><path
             id="path422"
             style="fill:#acc807;fill-opacity:1;fill-rule:nonzero;stroke:none"
             d="M 0,0 -23.93,-32.256 H 0.1 24.152 Z" /></g><g
           transform="translate(110.209,256.7949)"
           id="g424"><path
             id="path426"
             style="fill:#4a8864;fill-opacity:1;fill-rule:nonzero;stroke:none"
             d="M 0,0 0.164,-51.75 H 31.025 Z" /></g><g
           transform="translate(110.1094,286.7637)"
           id="g428"><path
             id="path430"
             style="fill:#6da257;fill-opacity:1;fill-rule:nonzero;stroke:none"
             d="M 0,0 0.141,-43.637 H 28.33 Z" /></g><g
           transform="translate(110.0098,312.4492)"
           id="g432"><path
             id="path434"
             style="fill:#90b346;fill-opacity:1;fill-rule:nonzero;stroke:none"
             d="M 0,0 0.117,-37.297 H 26.078 Z" /></g><g
           transform="translate(109.9453,334.7266)"
           id="g436"><path
             id="path438"
             style="fill:#9bb812;fill-opacity:1;fill-rule:nonzero;stroke:none"
             d="M 0,0 0.1,-32.256 H 24.152 Z" /></g><g
           transform="translate(91.1641,194.416)"
           id="g440"><path
             id="path442"
             style="fill:#77ab8b;fill-opacity:1;fill-rule:nonzero;stroke:none"
             d="m 0,0 c -23.779,0 -43.053,-19.291 -43.053,-43.061 h 86.11 C 43.057,-19.291 23.789,0 0,0" /></g></g></g></g></svg>