<?xml version="1.0" encoding="UTF-8" standalone="no"?>
<svg
   xmlns:dc="http://purl.org/dc/elements/1.1/"
   xmlns:cc="http://creativecommons.org/ns#"
   xmlns:rdf="http://www.w3.org/1999/02/22-rdf-syntax-ns#"
   xmlns:svg="http://www.w3.org/2000/svg"
   xmlns="http://www.w3.org/2000/svg"
   viewBox="0 0 21.833332 24.388666"
   height="24.388666"
   width="21.833332"
   xml:space="preserve"
   id="svg2"
   version="1.1"><metadata
     id="metadata8"><rdf:RDF><cc:Work
         rdf:about=""><dc:format>image/svg+xml</dc:format><dc:type
           rdf:resource="http://purl.org/dc/dcmitype/StillImage" /></cc:Work></rdf:RDF></metadata><defs
     id="defs6"><clipPath
       id="clipPath18"
       clipPathUnits="userSpaceOnUse"><path
         id="path16"
         d="M 0,18.292 H 16.375 V 0 H 0 Z" /></clipPath></defs><g
     transform="matrix(1.3333333,0,0,-1.3333333,0,24.388667)"
     id="g10"><g
       id="g12"><g
         clip-path="url(#clipPath18)"
         id="g14"><g
           transform="translate(15.375,2.4478)"
           id="g20"><path
             id="path22"
             style="fill:#ffffff;fill-opacity:1;fill-rule:nonzero;stroke:none"
             d="M 0,0 V -1.448 H -14.375 V 0 c 0,4.056 3.218,7.344 7.188,7.344 C -3.218,7.344 0,4.056 0,0" /></g><g
           transform="translate(15.375,2.4478)"
           id="g24"><path
             id="path26"
             style="fill:none;stroke:#000f9f;stroke-width:2;stroke-linecap:butt;stroke-linejoin:miter;stroke-miterlimit:10;stroke-dasharray:none;stroke-opacity:1"
             d="M 0,0 V -1.448 H -14.375 V 0 c 0,4.056 3.218,7.344 7.188,7.344 C -3.218,7.344 0,4.056 0,0 Z" /></g><g
           transform="translate(12.0625,12.854)"
           id="g28"><path
             id="path30"
             style="fill:#ffffff;fill-opacity:1;fill-rule:nonzero;stroke:none"
             d="m 0,0 c 0,-2.451 -1.734,-4.437 -3.875,-4.437 -2.141,0 -3.875,1.986 -3.875,4.437 0,2.451 1.734,4.437 3.875,4.437 C -1.734,4.437 0,2.451 0,0" /></g><g
           transform="translate(12.0625,12.854)"
           id="g32"><path
             id="path34"
             style="fill:none;stroke:#000f9f;stroke-width:2;stroke-linecap:butt;stroke-linejoin:miter;stroke-miterlimit:10;stroke-dasharray:none;stroke-opacity:1"
             d="m 0,0 c 0,-2.451 -1.734,-4.437 -3.875,-4.437 -2.141,0 -3.875,1.986 -3.875,4.437 0,2.451 1.734,4.437 3.875,4.437 C -1.734,4.437 0,2.451 0,0 Z" /></g></g></g></g></svg>