<?xml version="1.0" encoding="UTF-8" standalone="no"?>
<svg
   xmlns:dc="http://purl.org/dc/elements/1.1/"
   xmlns:cc="http://creativecommons.org/ns#"
   xmlns:rdf="http://www.w3.org/1999/02/22-rdf-syntax-ns#"
   xmlns:svg="http://www.w3.org/2000/svg"
   xmlns="http://www.w3.org/2000/svg"
   viewBox="0 0 237.57733 493.03064"
   height="493.03064"
   width="237.57733"
   xml:space="preserve"
   id="svg2"
   version="1.1"><metadata
     id="metadata8"><rdf:RDF><cc:Work
         rdf:about=""><dc:format>image/svg+xml</dc:format><dc:type
           rdf:resource="http://purl.org/dc/dcmitype/StillImage" /></cc:Work></rdf:RDF></metadata><defs
     id="defs6" /><g
     transform="matrix(1.3333333,0,0,-1.3333333,0,493.03079)"
     id="g10"><g
       transform="translate(84.7557,309.7431)"
       id="g12"><path
         id="path14"
         style="fill:#6d4328;fill-opacity:1;fill-rule:nonzero;stroke:none"
         d="m 0,0 -9.508,-309.743 h 27.68 L 8.686,0 Z" /></g><g
       transform="translate(89.1396,309.7431)"
       id="g16"><path
         id="path18"
         style="fill:#643b23;fill-opacity:1;fill-rule:nonzero;stroke:none"
         d="M 0,0 V -309.743 H 13.788 L 4.302,0 Z" /></g><g
       transform="translate(89.0946,208.4004)"
       id="g20"><path
         id="path22"
         style="fill:#68b330;fill-opacity:1;fill-rule:nonzero;stroke:none"
         d="M 0,0 H -89.087 L 0.607,-93.922 89.088,0 Z" /></g><g
       transform="translate(89.0946,208.4004)"
       id="g24"><path
         id="path26"
         style="fill:#5ca02b;fill-opacity:1;fill-rule:nonzero;stroke:none"
         d="M 0,0 0.607,-93.922 89.088,0 Z" /></g><g
       transform="translate(0,208.4004)"
       id="g28"><path
         id="path30"
         style="fill:#51976f;fill-opacity:1;fill-rule:nonzero;stroke:none"
         d="m 0,0 h 89.11 89.073 L 88.497,93.938 Z" /></g><g
       transform="translate(89.1099,208.4004)"
       id="g32"><path
         id="path34"
         style="fill:#4a8864;fill-opacity:1;fill-rule:nonzero;stroke:none"
         d="M 0,0 H 89.073 L -0.613,93.938 Z" /></g><g
       transform="translate(88.6904,338.8296)"
       id="g36"><path
         id="path38"
         style="fill:#78b563;fill-opacity:1;fill-rule:nonzero;stroke:none"
         d="m 0,0 -61.414,-65.184 61.834,-49.87 61.81,49.87 z" /></g><g
       transform="translate(88.6904,338.8296)"
       id="g40"><path
         id="path42"
         style="fill:#6da257;fill-opacity:1;fill-rule:nonzero;stroke:none"
         d="M 0,0 0.42,-65.184 H 62.23 Z" /></g><g
       transform="translate(88.7814,369.7731)"
       id="g44"><path
         id="path46"
         style="fill:#acc807;fill-opacity:1;fill-rule:nonzero;stroke:none"
         d="M 0,0 -45.278,-48.059 0.313,-86.668 45.905,-48.059 Z" /></g><g
       transform="translate(88.7814,369.7731)"
       id="g48"><path
         id="path50"
         style="fill:#9bb812;fill-opacity:1;fill-rule:nonzero;stroke:none"
         d="M 0,0 0.313,-48.059 H 45.905 Z" /></g><g
       transform="translate(89.5283,208.46)"
       id="g52"><path
         id="path54"
         style="fill:#68b330;fill-opacity:1;fill-rule:nonzero;stroke:none"
         d="M 0,0 61.393,65.186 H -0.434 -62.252 Z" /></g><g
       transform="translate(89.5283,208.46)"
       id="g56"><path
         id="path58"
         style="fill:#5ca02b;fill-opacity:1;fill-rule:nonzero;stroke:none"
         d="M 0,0 61.393,65.186 H -0.434 Z" /></g><g
       transform="translate(89.4092,273.646)"
       id="g60"><path
         id="path62"
         style="fill:#9ec650;fill-opacity:1;fill-rule:nonzero;stroke:none"
         d="M 0,0 45.277,48.068 H -0.314 -45.906 Z" /></g><g
       transform="translate(89.4092,273.646)"
       id="g64"><path
         id="path66"
         style="fill:#90b346;fill-opacity:1;fill-rule:nonzero;stroke:none"
         d="M 0,0 45.277,48.068 H -0.314 Z" /></g></g></svg>