<?xml version="1.0" encoding="UTF-8" standalone="no"?>
<svg
   xmlns:dc="http://purl.org/dc/elements/1.1/"
   xmlns:cc="http://creativecommons.org/ns#"
   xmlns:rdf="http://www.w3.org/1999/02/22-rdf-syntax-ns#"
   xmlns:svg="http://www.w3.org/2000/svg"
   xmlns="http://www.w3.org/2000/svg"
   viewBox="0 0 253.15773 459.15772"
   height="459.15771"
   width="253.15773"
   xml:space="preserve"
   id="svg2"
   version="1.1"><metadata
     id="metadata8"><rdf:RDF><cc:Work
         rdf:about=""><dc:format>image/svg+xml</dc:format><dc:type
           rdf:resource="http://purl.org/dc/dcmitype/StillImage" /></cc:Work></rdf:RDF></metadata><defs
     id="defs6" /><g
     transform="matrix(1.3333333,0,0,-1.3333333,3.9999999e-4,459.15719)"
     id="g10"><g
       transform="translate(90.3051,280.3896)"
       id="g12"><path
         id="path14"
         style="fill:#6d4328;fill-opacity:1;fill-rule:nonzero;stroke:none"
         d="M 0,0 -10.179,-280.39 H 19.448 L 9.267,0 Z" /></g><g
       transform="translate(95.0184,280.3896)"
       id="g16"><path
         id="path18"
         style="fill:#643b23;fill-opacity:1;fill-rule:nonzero;stroke:none"
         d="M 0,0 -0.107,-280.39 H 14.735 L 4.554,0 Z" /></g><g
       transform="translate(0,172.4085)"
       id="g20"><path
         id="path22"
         style="fill:#51976f;fill-opacity:1;fill-rule:nonzero;stroke:none"
         d="m 0,0 h 94.944 94.924 l -95.57,100.087 z" /></g><g
       transform="translate(94.9437,172.4085)"
       id="g24"><path
         id="path26"
         style="fill:#4a8864;fill-opacity:1;fill-rule:nonzero;stroke:none"
         d="M 0,0 H 94.924 L -0.645,100.087 Z" /></g><g
       transform="translate(94.9347,172.4085)"
       id="g28"><path
         id="path30"
         style="fill:#68b330;fill-opacity:1;fill-rule:nonzero;stroke:none"
         d="M 0,0 H -94.935 L 0.653,-100.078 94.933,0 Z" /></g><g
       transform="translate(94.4951,311.3862)"
       id="g32"><path
         id="path34"
         style="fill:#78b563;fill-opacity:1;fill-rule:nonzero;stroke:none"
         d="m 0,0 -65.434,-69.453 65.882,-55.691 65.891,55.691 z" /></g><g
       transform="translate(95.3916,172.4722)"
       id="g36"><path
         id="path38"
         style="fill:#1a7f44;fill-opacity:1;fill-rule:nonzero;stroke:none"
         d="M 0,0 65.442,69.461 H -0.457 -66.33 Z" /></g><g
       transform="translate(94.4951,311.3862)"
       id="g40"><path
         id="path42"
         style="fill:#6da257;fill-opacity:1;fill-rule:nonzero;stroke:none"
         d="M 0,0 0.448,-69.453 H 66.339 Z" /></g><g
       transform="translate(95.3916,172.4722)"
       id="g44"><path
         id="path46"
         style="fill:#17723e;fill-opacity:1;fill-rule:nonzero;stroke:none"
         d="M 0,0 65.442,69.461 H -0.457 Z" /></g><g
       transform="translate(94.9347,172.4085)"
       id="g48"><path
         id="path50"
         style="fill:#5ca02b;fill-opacity:1;fill-rule:nonzero;stroke:none"
         d="M 0,0 0.653,-100.078 94.933,0 Z" /></g><g
       transform="translate(94.617,344.3679)"
       id="g52"><path
         id="path54"
         style="fill:#acc807;fill-opacity:1;fill-rule:nonzero;stroke:none"
         d="M 0,0 -48.256,-51.207 0.318,-88.743 48.904,-51.207 Z" /></g><g
       transform="translate(95.2695,241.9331)"
       id="g56"><path
         id="path58"
         style="fill:#9ec650;fill-opacity:1;fill-rule:nonzero;stroke:none"
         d="M 0,0 48.252,51.22 H -0.335 -48.909 Z" /></g><g
       transform="translate(94.617,344.3679)"
       id="g60"><path
         id="path62"
         style="fill:#9bb812;fill-opacity:1;fill-rule:nonzero;stroke:none"
         d="M 0,0 0.318,-51.207 H 48.904 Z" /></g><g
       transform="translate(95.2695,241.9331)"
       id="g64"><path
         id="path66"
         style="fill:#90b346;fill-opacity:1;fill-rule:nonzero;stroke:none"
         d="M 0,0 48.252,51.22 H -0.335 Z" /></g></g></svg>