<?xml version="1.0" encoding="UTF-8" standalone="no"?>
<svg
   xmlns:dc="http://purl.org/dc/elements/1.1/"
   xmlns:cc="http://creativecommons.org/ns#"
   xmlns:rdf="http://www.w3.org/1999/02/22-rdf-syntax-ns#"
   xmlns:svg="http://www.w3.org/2000/svg"
   xmlns="http://www.w3.org/2000/svg"
   viewBox="0 0 105.65333 75.663734"
   height="75.663734"
   width="105.65333"
   xml:space="preserve"
   id="svg2"
   version="1.1"><metadata
     id="metadata8"><rdf:RDF><cc:Work
         rdf:about=""><dc:format>image/svg+xml</dc:format><dc:type
           rdf:resource="http://purl.org/dc/dcmitype/StillImage" /></cc:Work></rdf:RDF></metadata><defs
     id="defs6"><clipPath
       id="clipPath18"
       clipPathUnits="userSpaceOnUse"><path
         id="path16"
         d="M 0,56.748 H 79.24 V 0 H 0 Z" /></clipPath></defs><g
     transform="matrix(1.3333333,0,0,-1.3333333,0,75.663998)"
     id="g10"><g
       id="g12"><g
         clip-path="url(#clipPath18)"
         id="g14"><g
           transform="translate(19.6201,3.5742)"
           id="g20"><path
             id="path22"
             style="fill:#a9c80c;fill-opacity:1;fill-rule:nonzero;stroke:none"
             d="m 0,0 c -2.081,0 -3.768,1.686 -3.768,3.766 0,2.082 1.687,3.767 3.768,3.767 2.08,0 3.767,-1.685 3.767,-3.767 C 3.767,1.686 2.08,0 0,0 m -0.001,11.107 c -4.055,0 -7.341,-3.285 -7.341,-7.339 0,-4.055 3.286,-7.342 7.341,-7.342 4.055,0 7.342,3.287 7.342,7.342 0,4.054 -3.287,7.339 -7.342,7.339" /></g><g
           transform="translate(56.4453,3.5742)"
           id="g24"><path
             id="path26"
             style="fill:#a9c80c;fill-opacity:1;fill-rule:nonzero;stroke:none"
             d="m 0,0 c -2.08,0 -3.767,1.686 -3.767,3.766 0,2.082 1.687,3.767 3.767,3.767 2.082,0 3.769,-1.685 3.769,-3.767 C 3.769,1.686 2.082,0 0,0 m 0,11.107 c -4.055,0 -7.341,-3.285 -7.341,-7.339 0,-4.055 3.286,-7.342 7.341,-7.342 4.054,0 7.342,3.287 7.342,7.342 0,4.054 -3.288,7.339 -7.342,7.339" /></g><g
           transform="translate(76.2256,53.4824)"
           id="g28"><path
             id="path30"
             style="fill:#a9c80c;fill-opacity:1;fill-rule:nonzero;stroke:none"
             d="m 0,0 c 0,1.804 -1.461,3.266 -3.264,3.266 h -33.53 c -1.803,0 -3.265,-1.462 -3.265,-3.266 V -35.727 H 0 Z" /></g><g
           transform="translate(26.9609,33.7246)"
           id="g32"><path
             id="path34"
             style="fill:#a9c80c;fill-opacity:1;fill-rule:nonzero;stroke:none"
             d="m 0,0 h -16.076 v 1.842 l 6.027,7.786 H 0 Z M 24.249,-18.605 H 5.94 v 32.001 c 0,1.433 -0.985,2.595 -2.204,2.595 H -7.245 -8.349 -9.442 c -1.821,0 -2.431,-0.849 -3.575,-2.261 L -23.276,0.168 v -18.773 h -3.685 v -6.592 h 10.447 c 0.5,4.623 4.415,8.224 9.173,8.224 4.758,0 8.672,-3.601 9.173,-8.224 h 18.48 c 0.296,2.732 1.785,5.107 3.937,6.592" /></g><g
           transform="translate(61.6816,15.1191)"
           id="g36"><path
             id="path38"
             style="fill:#a9c80c;fill-opacity:1;fill-rule:nonzero;stroke:none"
             d="M 0,0 C 2.151,-1.484 3.642,-3.859 3.938,-6.592 H 17.559 V 0 Z" /></g></g></g></g></svg>