<?xml version="1.0" encoding="UTF-8" standalone="no"?>
<svg
   xmlns:dc="http://purl.org/dc/elements/1.1/"
   xmlns:cc="http://creativecommons.org/ns#"
   xmlns:rdf="http://www.w3.org/1999/02/22-rdf-syntax-ns#"
   xmlns:svg="http://www.w3.org/2000/svg"
   xmlns="http://www.w3.org/2000/svg"
   viewBox="0 0 116.6536 243.06934"
   height="243.06934"
   width="116.6536"
   xml:space="preserve"
   id="svg2"
   version="1.1"><metadata
     id="metadata8"><rdf:RDF><cc:Work
         rdf:about=""><dc:format>image/svg+xml</dc:format><dc:type
           rdf:resource="http://purl.org/dc/dcmitype/StillImage" /></cc:Work></rdf:RDF></metadata><defs
     id="defs6" /><g
     transform="matrix(1.3333333,0,0,-1.3333333,0,243.06933)"
     id="g10"><g
       transform="translate(42.1938,174.1113)"
       id="g12"><path
         id="path14"
         style="fill:#6d4328;fill-opacity:1;fill-rule:nonzero;stroke:none"
         d="M 0,0 -5.324,-174.111 H 10.172 L 4.842,0 Z" /></g><g
       transform="translate(43.6932,174.1113)"
       id="g16"><path
         id="path18"
         style="fill:#643b23;fill-opacity:1;fill-rule:nonzero;stroke:none"
         d="M 0,0 V -174.111 H 8.8 L 2.751,0 Z" /></g><g
       transform="translate(0,36.99)"
       id="g20"><path
         id="path22"
         style="fill:#68b330;fill-opacity:1;fill-rule:nonzero;stroke:none"
         d="M 0,0 H 43.751 87.49 L 43.498,57.987 Z" /></g><g
       transform="translate(43.3564,128.5674)"
       id="g24"><path
         id="path26"
         style="fill:#96bd19;fill-opacity:1;fill-rule:nonzero;stroke:none"
         d="M 0,0 -39.766,-48.905 H 0.208 40.183 Z" /></g><g
       transform="translate(43.2285,157.3521)"
       id="g28"><path
         id="path30"
         style="fill:#78b563;fill-opacity:1;fill-rule:nonzero;stroke:none"
         d="M 0,0 -36.613,-41.798 H 0.183 36.98 Z" /></g><g
       transform="translate(43.1298,182.3022)"
       id="g32"><path
         id="path34"
         style="fill:#acc807;fill-opacity:1;fill-rule:nonzero;stroke:none"
         d="M 0,0 -33.935,-36.142 H 0.15 34.244 Z" /></g><g
       transform="translate(43.7508,36.99)"
       id="g36"><path
         id="path38"
         style="fill:#5ca02b;fill-opacity:1;fill-rule:nonzero;stroke:none"
         d="M 0,0 H 43.739 L -0.253,57.987 Z" /></g><g
       transform="translate(43.3564,128.5674)"
       id="g40"><path
         id="path42"
         style="fill:#88aa19;fill-opacity:1;fill-rule:nonzero;stroke:none"
         d="M 0,0 0.208,-48.905 H 40.183 Z" /></g><g
       transform="translate(43.2285,157.3521)"
       id="g44"><path
         id="path46"
         style="fill:#6da257;fill-opacity:1;fill-rule:nonzero;stroke:none"
         d="M 0,0 0.183,-41.798 H 36.98 Z" /></g><g
       transform="translate(43.1298,182.3022)"
       id="g48"><path
         id="path50"
         style="fill:#9bb812;fill-opacity:1;fill-rule:nonzero;stroke:none"
         d="M 0,0 0.15,-36.142 H 34.244 Z" /></g></g></svg>