<?xml version="1.0" encoding="UTF-8" standalone="no"?>
<svg
   xmlns:dc="http://purl.org/dc/elements/1.1/"
   xmlns:cc="http://creativecommons.org/ns#"
   xmlns:rdf="http://www.w3.org/1999/02/22-rdf-syntax-ns#"
   xmlns:svg="http://www.w3.org/2000/svg"
   xmlns="http://www.w3.org/2000/svg"
   viewBox="0 0 89.722267 79.04158"
   height="79.04158"
   width="89.722267"
   xml:space="preserve"
   id="svg2"
   version="1.1"><metadata
     id="metadata8"><rdf:RDF><cc:Work
         rdf:about=""><dc:format>image/svg+xml</dc:format><dc:type
           rdf:resource="http://purl.org/dc/dcmitype/StillImage" /></cc:Work></rdf:RDF></metadata><defs
     id="defs6"><clipPath
       id="clipPath18"
       clipPathUnits="userSpaceOnUse"><path
         id="path16"
         d="M 0,59.282 H 67.292 V 0 H 0 Z" /></clipPath></defs><g
     transform="matrix(1.3333333,0,0,-1.3333333,-3.9999999e-4,79.041983)"
     id="g10"><g
       id="g12"><g
         clip-path="url(#clipPath18)"
         id="g14"><g
           transform="translate(14.165,33.1958)"
           id="g20"><path
             id="path22"
             style="fill:#a9c80c;fill-opacity:1;fill-rule:nonzero;stroke:none"
             d="m 0,0 c 2.398,-1.508 5.564,-0.789 7.072,1.613 0.881,1.4 0.981,3.058 0.449,4.502 l 9.663,15.372 c 0.882,1.402 0.461,3.256 -0.944,4.138 -1.402,0.882 -3.256,0.46 -4.139,-0.945 L 2.531,9.461 C 0.9,9.398 -0.676,8.559 -1.611,7.07 -3.119,4.671 -2.398,1.505 0,0" /></g><g
           transform="translate(45.5566,39.311)"
           id="g24"><path
             id="path26"
             style="fill:#a9c80c;fill-opacity:1;fill-rule:nonzero;stroke:none"
             d="M 0,0 C -0.533,-1.444 -0.433,-3.102 0.448,-4.502 1.957,-6.904 5.121,-7.624 7.52,-6.115 9.918,-4.61 10.639,-1.444 9.132,0.955 8.197,2.444 6.621,3.283 4.987,3.346 l -9.566,15.219 c -0.884,1.405 -2.736,1.827 -4.14,0.944 -1.405,-0.881 -1.827,-2.735 -0.944,-4.137 z" /></g><g
           transform="translate(50.3193,23.4863)"
           id="g28"><path
             id="path30"
             style="fill:#a9c80c;fill-opacity:1;fill-rule:nonzero;stroke:none"
             d="m 0,0 -1.919,-14.758 c -0.234,-1.808 -1.895,-3.088 -3.704,-2.853 -1.812,0.236 -3.091,1.896 -2.853,3.707 L -6.558,0.852 C -6.323,2.661 -4.662,3.94 -2.854,3.704 -1.042,3.467 0.236,1.809 0,0 m -13.392,-14.334 c 0,-1.826 -1.481,-3.305 -3.307,-3.305 -1.826,0 -3.307,1.479 -3.307,3.305 V 0.549 c 0,1.825 1.481,3.305 3.307,3.305 1.826,0 3.307,-1.48 3.307,-3.305 z m -14.381,-3.277 c -1.811,-0.235 -3.471,1.045 -3.706,2.853 L -33.396,0 c -0.237,1.809 1.041,3.467 2.853,3.704 1.81,0.236 3.469,-1.043 3.704,-2.852 l 1.918,-14.756 c 0.236,-1.811 -1.042,-3.471 -2.852,-3.707 M 11.72,15.257 H 6.771 c 0.145,-0.559 0.231,-1.145 0.231,-1.751 0,-3.849 -3.125,-6.973 -6.975,-6.973 -3.851,0 -6.973,3.124 -6.973,6.973 0,0.606 0.085,1.192 0.23,1.751 h -19.966 c 0.145,-0.559 0.231,-1.145 0.231,-1.751 0,-3.849 -3.123,-6.973 -6.973,-6.973 -3.851,0 -6.974,3.124 -6.974,6.973 0,0.606 0.085,1.192 0.231,1.751 h -4.899 c -2.902,0 -5.253,-2.35 -5.253,-5.253 0,-2.9 2.351,-5.254 5.253,-5.254 h 1.109 l 3.331,-24.066 c 0.341,-2.463 2.489,-4.211 4.917,-4.145 l 0.004,-0.025 H 2.518 l 0.002,0.023 c 2.419,-0.055 4.556,1.692 4.896,4.147 l 3.33,24.066 h 0.974 c 2.9,0 5.253,2.354 5.253,5.254 0,2.903 -2.353,5.253 -5.253,5.253" /></g></g></g></g></svg>