<?xml version="1.0" encoding="UTF-8" standalone="no"?>
<svg
   xmlns:dc="http://purl.org/dc/elements/1.1/"
   xmlns:cc="http://creativecommons.org/ns#"
   xmlns:rdf="http://www.w3.org/1999/02/22-rdf-syntax-ns#"
   xmlns:svg="http://www.w3.org/2000/svg"
   xmlns="http://www.w3.org/2000/svg"
   viewBox="0 0 117.10986 193.6716"
   height="193.6716"
   width="117.10986"
   xml:space="preserve"
   id="svg2"
   version="1.1"><metadata
     id="metadata8"><rdf:RDF><cc:Work
         rdf:about=""><dc:format>image/svg+xml</dc:format><dc:type
           rdf:resource="http://purl.org/dc/dcmitype/StillImage" /></cc:Work></rdf:RDF></metadata><defs
     id="defs6" /><g
     transform="matrix(1.3333333,0,0,-1.3333333,0,193.6716)"
     id="g10"><path
       id="path12"
       style="fill:#59b13b;fill-opacity:1;fill-rule:nonzero;stroke:none"
       d="M 0,0 H 43.916 87.832 L 43.669,57.965 Z" /><g
       transform="translate(43.9164)"
       id="g14"><path
         id="path16"
         style="fill:#5ca02b;fill-opacity:1;fill-rule:nonzero;stroke:none"
         d="M 0,0 H 43.916 L -0.247,57.965 Z" /></g><g
       transform="translate(43.5205,91.5415)"
       id="g18"><path
         id="path20"
         style="fill:#51976f;fill-opacity:1;fill-rule:nonzero;stroke:none"
         d="M 0,0 -39.917,-48.884 H 0.21 40.337 Z" /></g><g
       transform="translate(43.5205,91.5415)"
       id="g22"><path
         id="path24"
         style="fill:#4a8864;fill-opacity:1;fill-rule:nonzero;stroke:none"
         d="M 0,0 0.21,-48.884 H 40.337 Z" /></g><g
       transform="translate(43.4092,120.3154)"
       id="g26"><path
         id="path28"
         style="fill:#78b563;fill-opacity:1;fill-rule:nonzero;stroke:none"
         d="M 0,0 -36.769,-41.787 H 0.161 37.116 Z" /></g><g
       transform="translate(43.4092,120.3154)"
       id="g30"><path
         id="path32"
         style="fill:#6da257;fill-opacity:1;fill-rule:nonzero;stroke:none"
         d="M 0,0 0.161,-41.787 H 37.116 Z" /></g><g
       transform="translate(43.2981,145.2537)"
       id="g34"><path
         id="path36"
         style="fill:#acc807;fill-opacity:1;fill-rule:nonzero;stroke:none"
         d="M 0,0 -34.078,-36.13 H 0.149 34.375 Z" /></g><g
       transform="translate(43.2981,145.2537)"
       id="g38"><path
         id="path40"
         style="fill:#9bb812;fill-opacity:1;fill-rule:nonzero;stroke:none"
         d="M 0,0 0.149,-36.13 H 34.375 Z" /></g></g></svg>