<?xml version="1.0" encoding="UTF-8" standalone="no"?>
<svg
   xmlns:dc="http://purl.org/dc/elements/1.1/"
   xmlns:cc="http://creativecommons.org/ns#"
   xmlns:rdf="http://www.w3.org/1999/02/22-rdf-syntax-ns#"
   xmlns:svg="http://www.w3.org/2000/svg"
   xmlns="http://www.w3.org/2000/svg"
   viewBox="0 0 48.524799 42.214802"
   height="42.214802"
   width="48.524799"
   xml:space="preserve"
   id="svg2"
   version="1.1"><metadata
     id="metadata8"><rdf:RDF><cc:Work
         rdf:about=""><dc:format>image/svg+xml</dc:format><dc:type
           rdf:resource="http://purl.org/dc/dcmitype/StillImage" /></cc:Work></rdf:RDF></metadata><defs
     id="defs6"><clipPath
       id="clipPath18"
       clipPathUnits="userSpaceOnUse"><path
         id="path16"
         d="M 0,31.661 H 36.394 V 0 H 0 Z" /></clipPath></defs><g
     transform="matrix(1.3333333,0,0,-1.3333333,0,42.2148)"
     id="g10"><g
       id="g12"><g
         clip-path="url(#clipPath18)"
         id="g14"><g
           transform="translate(13.8926,6.542)"
           id="g20"><path
             id="path22"
             style="fill:#ffffff;fill-opacity:1;fill-rule:nonzero;stroke:none"
             d="m 0,0 c -1.808,0 -3.271,-1.465 -3.271,-3.271 0,-1.808 1.463,-3.271 3.271,-3.271 1.807,0 3.272,1.463 3.272,3.271 C 3.272,-1.465 1.807,0 0,0" /></g><g
           transform="translate(27.1104,6.542)"
           id="g24"><path
             id="path26"
             style="fill:#ffffff;fill-opacity:1;fill-rule:nonzero;stroke:none"
             d="m 0,0 c -1.807,0 -3.271,-1.465 -3.271,-3.271 0,-1.808 1.464,-3.271 3.271,-3.271 1.809,0 3.273,1.463 3.273,3.271 C 3.273,-1.465 1.809,0 0,0" /></g><g
           transform="translate(35.1182,22.5889)"
           id="g28"><path
             id="path30"
             style="fill:#ffffff;fill-opacity:1;fill-rule:nonzero;stroke:none"
             d="m 0,0 c -0.202,0.069 -0.405,0.094 -0.605,0.094 l 0.001,0.009 h -16.463 c -1.044,0 -1.89,-0.845 -1.89,-1.888 0,-1.043 0.846,-1.887 1.89,-1.887 H -3.251 L -3.899,-5.56 h -14.426 c -1.045,0 -1.888,-0.846 -1.888,-1.887 0,-1.043 0.843,-1.889 1.888,-1.889 h 13.134 l -0.803,-2.348 h -15.828 l -2.785,18.172 c -0.033,0.919 -0.729,1.7 -1.667,1.804 l -4.229,0.476 -2.508,0.291 c -1.036,0.122 -1.973,-0.621 -2.094,-1.657 -0.122,-1.036 0.622,-1.972 1.659,-2.093 l 0.328,-0.038 -10e-4,-0.01 2.201,-0.246 2.767,-0.323 2.841,-18.548 c 0.155,-1.023 1.104,-1.724 2.126,-1.583 0.067,-0.006 0.133,-0.019 0.203,-0.019 h 18.352 c 0.825,0 1.523,0.534 1.776,1.276 h 0.007 l 4.02,11.786 C 1.511,-1.41 0.985,-0.337 0,0" /></g></g></g></g></svg>